<!DOCTYPE svg PUBLIC "-//W3C//DTD SVG 20010904//EN" "http://www.w3.org/TR/2001/REC-SVG-20010904/DTD/svg10.dtd">
<svg version="1.0" xmlns="http://www.w3.org/2000/svg" width="1920px" height="1080px" viewBox="0 0 12000 6750" preserveAspectRatio="xMidYMid meet">
<g id="layer101" fill="#060403" stroke="none">
<path d="M7865 6099 c-263 -18 -301 -25 -388 -67 -45 -22 -91 -47 -102 -56 -11 -8 -49 -38 -85 -66 -138 -106 -163 -128 -256 -217 -53 -51 -104 -93 -113 -93 -9 0 -28 14 -41 30 -78 97 -246 239 -331 282 -145 72 -105 68 -611 68 -513 0 -635 -9 -821 -60 -62 -17 -159 -55 -225 -88 -116 -57 -118 -58 -307 -243 -104 -102 -212 -201 -240 -220 -58 -39 -305 -281 -305 -299 0 -19 -185 -290 -212 -310 -12 -10 -168 -320 -189 -378 -54 -146 -89 -251 -99 -292 -26 -104 -31 -129 -45 -210 -62 -356 -38 -444 191 -714 103 -123 213 -233 259 -261 17 -10 41 -29 55 -41 14 -12 36 -25 50 -29 39 -11 140 -75 140 -88 0 -17 -224 -236 -286 -280 -72 -51 -234 -223 -234 -248 0 -11 -4 -28 -10 -38 -5 -10 -10 -133 -11 -273 l-1 -254 27 -60 c39 -84 298 -346 363 -368 24 -9 59 -29 76 -45 59 -57 131 -117 191 -161 33 -24 67 -50 75 -57 41 -38 475 -273 505 -273 3 0 24 -8 48 -19 89 -39 199 -76 316 -107 294 -78 437 -88 586 -41 206 66 322 121 422 204 13 10 44 34 69 53 25 19 63 49 84 65 21 17 61 48 89 70 28 22 54 48 57 57 3 10 9 18 13 18 4 0 26 28 49 62 82 125 106 155 206 258 55 58 111 117 123 132 l23 28 56 -36 c83 -53 241 -127 272 -127 15 0 43 0 62 0 19 1 105 2 190 3 85 1 173 6 195 11 142 31 146 33 219 95 39 34 96 94 126 135 30 40 132 153 227 249 168 171 203 219 203 273 0 13 9 35 21 48 11 13 29 35 41 48 11 13 30 40 41 60 12 20 27 40 34 44 7 4 25 29 40 55 15 26 39 63 55 83 15 20 28 44 28 53 0 8 16 40 35 70 19 30 35 62 35 70 0 8 4 18 10 21 5 3 17 23 26 43 8 20 24 57 35 81 36 80 97 246 104 284 4 20 11 40 16 43 5 3 9 20 9 39 0 19 4 36 9 40 6 3 13 27 16 53 5 43 10 66 31 142 4 13 74 92 155 174 115 116 157 166 186 220 l38 71 -1 225 c-1 218 -2 227 -27 288 -14 35 -40 79 -56 98 -17 19 -33 47 -37 62 -3 15 -12 45 -19 67 -8 22 -17 60 -21 85 -4 25 -10 50 -14 55 -4 6 -16 37 -25 70 -10 33 -26 78 -35 100 -10 22 -21 51 -25 65 -16 54 -135 300 -179 368 -15 24 -32 55 -39 70 -6 15 -14 29 -18 32 -4 3 -22 30 -40 60 -43 70 -118 173 -166 228 -21 24 -42 50 -46 58 -16 29 -223 231 -262 256 -57 37 -160 65 -310 83 -179 21 -187 21 -300 14z"/>
</g>
<g id="layer102" fill="#42322f" stroke="none">
<path d="M7275 5530 c-13 -5 -14 -9 -5 -9 8 0 24 4 35 9 13 5 14 9 5 9 -8 0 -24 -4 -35 -9z"/>
<path d="M5570 5455 c0 -9 -3 -14 -7 -12 -5 3 -37 8 -73 11 -53 5 -72 3 -104 -13 -29 -15 -44 -18 -57 -10 -26 13 -128 14 -142 0 -6 -6 -24 -11 -39 -11 -18 0 -28 -5 -28 -15 0 -12 -5 -13 -24 -4 -14 7 -22 17 -19 25 6 17 -18 18 -72 2 l-40 -12 35 -5 c52 -9 51 -36 -1 -49 -23 -6 -48 -8 -55 -5 -9 3 -14 -2 -14 -14 0 -24 -38 -43 -85 -43 -19 0 -37 -5 -41 -12 -4 -6 -3 -8 3 -5 6 4 13 1 16 -7 7 -17 -62 -41 -92 -31 -29 9 -12 31 30 40 16 4 29 13 29 22 0 8 18 22 39 31 26 11 41 25 44 40 4 20 1 22 -24 18 -31 -5 -51 -21 -62 -50 -4 -10 -13 -16 -21 -13 -9 4 -17 -1 -20 -11 -2 -9 -4 -3 -3 13 2 28 0 30 -28 27 -29 -3 -62 -22 -38 -22 6 0 13 -9 16 -20 3 -12 0 -20 -7 -20 -7 0 -18 -10 -24 -22 -7 -15 -11 -17 -11 -8 -1 23 -39 44 -56 30 -7 -6 -19 -10 -27 -9 -37 5 -58 -5 -96 -41 -22 -22 -50 -40 -61 -40 -11 0 -30 -13 -43 -30 -15 -21 -30 -30 -51 -30 -23 0 -31 -6 -40 -30 -6 -16 -17 -30 -23 -30 -18 0 -104 -91 -104 -110 0 -9 -9 -27 -20 -40 l-20 -23 0 22 c0 12 5 31 11 43 6 11 8 22 5 25 -10 10 -37 -20 -32 -34 3 -7 -6 -24 -20 -36 -15 -12 -40 -42 -57 -67 -17 -25 -40 -54 -50 -65 -29 -30 -36 -59 -27 -100 5 -21 5 -45 0 -54 -5 -9 -11 -24 -14 -34 -3 -9 -16 -21 -29 -26 -21 -8 -24 -16 -26 -71 -1 -39 2 -60 8 -56 5 4 12 2 16 -4 3 -5 -1 -10 -9 -10 -9 0 -18 -13 -22 -35 -3 -19 -16 -40 -29 -49 -17 -11 -22 -23 -21 -50 2 -41 8 -49 38 -53 12 -2 22 -4 23 -6 0 -1 9 -18 18 -37 12 -23 15 -27 11 -10 -3 14 -9 43 -11 66 -5 46 13 62 48 43 19 -10 20 -9 9 11 -25 46 15 97 50 65 15 -14 16 -13 12 15 -5 34 19 50 48 32 14 -8 21 -8 27 1 13 17 14 57 2 79 -10 18 -3 23 29 19 7 -1 36 20 65 48 29 27 64 59 80 71 15 12 25 26 22 31 -4 5 -1 9 5 9 19 0 95 53 82 58 -10 3 -10 7 0 20 10 12 10 14 1 8 -7 -4 -13 -3 -13 3 0 5 5 13 11 17 8 5 8 8 0 13 -7 4 -1 17 14 33 14 15 25 30 25 33 0 27 97 86 129 78 16 -4 21 -1 21 15 0 24 52 57 115 73 24 6 58 24 76 40 18 16 50 34 71 39 20 6 39 14 42 18 2 4 50 7 105 7 56 0 96 2 91 3 -6 2 -10 12 -10 23 0 13 7 19 23 19 18 0 19 2 7 10 -12 8 -11 10 6 10 11 0 25 5 32 12 9 9 12 9 12 0 0 -10 3 -10 14 0 8 7 12 16 9 21 -7 12 48 28 71 21 11 -4 18 -3 14 1 -4 4 -1 14 7 21 18 18 25 18 25 -1 0 -20 12 -19 37 4 16 15 30 18 67 14 40 -5 46 -3 40 11 -6 16 -1 19 46 20 14 1 25 6 25 13 0 17 12 26 25 18 17 -10 130 -14 130 -4 0 5 12 14 26 19 17 7 24 15 20 25 -4 10 1 15 15 15 11 0 17 -4 14 -10 -4 -6 8 -10 29 -10 20 0 36 5 36 10 0 6 -6 10 -12 10 -35 1 -94 13 -102 20 -4 4 -22 4 -39 -1 -40 -11 -50 -11 -42 0 3 5 1 12 -5 16 -5 3 -10 -1 -10 -10z m-990 -210 c0 -16 -27 -32 -37 -21 -7 7 16 36 28 36 5 0 9 -7 9 -15z m134 -31 c4 -11 -5 -20 -34 -31 -26 -11 -42 -24 -46 -39 -5 -20 -20 -30 -77 -48 -13 -4 -16 -12 -12 -25 5 -15 -3 -22 -40 -34 -51 -18 -83 -13 -65 9 6 7 25 16 41 19 32 7 38 29 12 44 -16 9 -16 10 3 11 11 0 35 7 53 16 17 9 40 17 49 18 9 2 17 11 17 22 0 12 13 26 35 36 43 22 56 22 64 2z m-317 -144 c-14 -11 -29 -20 -34 -20 -10 1 39 39 51 40 5 0 -3 -9 -17 -20z m-87 -69 c0 -36 -71 -104 -85 -82 -2 5 7 12 21 15 17 5 24 12 22 25 -2 10 3 25 11 34 15 19 31 22 31 8z m140 -22 c0 -9 -52 -31 -84 -35 -28 -4 -29 -3 -11 15 16 19 37 26 78 26 9 1 17 -2 17 -6z m-128 -41 c-9 -9 -15 -9 -24 0 -9 9 -7 12 12 12 19 0 21 -3 12 -12z m-212 -77 c-4 -16 -7 -49 -6 -72 1 -24 -2 -50 -7 -56 -5 -7 -6 -24 -3 -38 l7 -26 32 26 c18 14 37 30 44 35 16 13 26 13 18 0 -3 -5 -2 -10 4 -10 6 0 8 -6 5 -14 -6 -15 -70 -51 -92 -51 -13 0 -32 -23 -32 -38 0 -4 8 -3 18 2 10 5 24 6 32 1 10 -6 8 -11 -9 -21 -11 -8 -21 -20 -21 -28 0 -12 -3 -12 -12 -3 -14 14 -19 130 -7 154 6 10 5 19 -2 24 -7 4 -7 10 -1 16 7 7 7 20 0 39 -8 23 -6 37 7 64 19 41 37 38 25 -4z m242 19 c-26 -21 -99 -35 -131 -25 -21 6 -29 25 -11 25 6 0 10 -4 10 -10 0 -16 33 -11 65 10 17 11 44 20 60 20 l30 -1 -23 -19z m-58 -74 c-6 -16 -63 -46 -88 -46 -30 0 -16 28 22 43 48 20 73 21 66 3z m-241 -310 c4 -9 -2 -17 -14 -21 -25 -8 -34 -1 -26 20 8 19 33 20 40 1z"/>
<path d="M7382 5463 c-12 -2 -20 -9 -17 -14 4 -5 14 -5 26 1 11 6 25 8 31 4 7 -4 8 -3 4 4 -4 7 -10 11 -14 11 -4 -1 -17 -4 -30 -6z"/>
<path d="M5875 5420 c3 -5 13 -10 21 -10 8 0 12 5 9 10 -3 6 -13 10 -21 10 -8 0 -12 -4 -9 -10z"/>
<path d="M5930 5401 c0 -5 5 -11 12 -13 6 -2 12 -12 14 -22 2 -15 -2 -17 -28 -12 -17 3 -44 13 -61 21 -24 12 -28 12 -24 0 8 -18 -14 -35 -39 -30 -26 7 -64 -22 -45 -34 15 -10 53 -2 62 12 5 6 24 6 54 -2 34 -8 51 -9 58 -2 15 15 43 14 77 -4 l30 -15 -12 27 c-17 40 -27 51 -61 68 -35 18 -37 18 -37 6z"/>
<path d="M7584 5378 c-4 -7 -4 -10 1 -6 4 4 16 3 26 -3 11 -6 19 -6 19 0 0 5 -7 12 -16 15 -21 8 -22 8 -30 -6z"/>
<path d="M5703 5320 c1 -20 8 -25 20 -14 7 8 -3 34 -13 34 -5 0 -8 -9 -7 -20z"/>
<path d="M6096 5320 c23 -10 45 -23 48 -29 4 -6 12 -11 17 -11 14 0 -19 32 -49 47 -13 7 -32 13 -41 12 -9 0 3 -9 25 -19z"/>
<path d="M5526 5305 c-3 -9 -9 -14 -14 -11 -4 2 -14 1 -22 -5 -11 -6 -12 -9 -2 -9 7 0 10 -4 7 -10 -3 -5 0 -10 8 -10 13 0 42 48 34 57 -3 2 -7 -3 -11 -12z"/>
<path d="M5603 5301 c1 -22 12 -28 21 -12 3 5 -1 14 -9 21 -11 9 -14 8 -12 -9z"/>
<path d="M8030 5314 c0 -7 52 -25 57 -20 2 2 -10 8 -26 14 -17 6 -31 9 -31 6z"/>
<path d="M6189 5253 c5 -10 21 -29 36 -43 15 -14 36 -43 46 -65 11 -22 35 -62 54 -90 19 -27 35 -57 35 -65 0 -9 9 -24 21 -33 16 -15 18 -21 8 -33 -9 -11 -15 -12 -25 -3 -8 6 -14 17 -14 24 0 22 -38 25 -43 3 -4 -14 -11 -18 -25 -14 -11 4 -31 1 -46 -5 -19 -9 -29 -9 -39 0 -8 6 -22 9 -30 5 -9 -3 -32 4 -52 16 -26 16 -39 19 -48 11 -8 -6 -25 -7 -43 -2 -17 5 -36 4 -46 -3 -13 -8 -24 -5 -48 12 -29 22 -30 22 -30 2 0 -15 -7 -20 -24 -20 -14 0 -28 5 -32 11 -5 8 -10 6 -16 -5 -10 -18 -40 -21 -68 -6 -15 8 -21 6 -30 -10 -9 -16 -15 -18 -30 -10 -27 14 -40 12 -40 -6 0 -13 -7 -15 -34 -11 -42 7 -71 -17 -34 -27 13 -3 33 -6 46 -6 12 0 22 -6 22 -14 0 -10 13 -14 46 -14 25 0 48 -3 51 -6 3 -3 13 -1 23 4 28 15 156 22 313 18 93 -3 110 -6 119 -21 8 -16 18 -18 53 -13 30 5 45 3 54 -8 7 -8 21 -12 32 -9 18 5 20 2 17 -28 -3 -33 -3 -33 72 -59 41 -15 88 -32 103 -38 16 -7 30 -12 33 -12 3 0 14 -9 26 -20 12 -11 30 -20 40 -20 11 0 32 -7 48 -15 46 -24 39 6 -11 47 -57 47 -151 138 -142 138 5 1 -4 8 -19 16 -24 13 -33 29 -30 55 1 4 -6 6 -15 5 -10 -1 -33 32 -67 99 -28 55 -57 106 -63 113 -7 7 -13 17 -13 21 0 4 -21 30 -47 58 -27 27 -56 59 -65 71 -22 27 -43 30 -29 5z"/>
<path d="M4244 5204 c-53 -61 -105 -114 -150 -154 -16 -14 -35 -36 -43 -50 l-14 -25 36 28 c20 15 40 26 44 25 13 -4 89 79 85 92 -2 6 23 36 57 67 34 31 61 60 61 65 0 22 -31 2 -76 -48z"/>
<path d="M5400 5240 c0 -11 2 -20 5 -20 2 0 9 9 15 20 9 16 8 20 -5 20 -8 0 -15 -9 -15 -20z"/>
<path d="M5682 5245 c9 -10 21 -16 28 -13 7 2 -1 10 -16 17 -27 12 -28 11 -12 -4z"/>
<path d="M6110 5242 c0 -5 7 -15 15 -22 8 -7 15 -8 15 -2 0 5 -7 15 -15 22 -8 7 -15 8 -15 2z"/>
<path d="M5230 5214 c-5 -13 -18 -24 -28 -24 -10 0 -24 -6 -31 -12 -11 -10 -14 -10 -18 0 -6 17 -23 15 -23 -3 0 -17 -30 -35 -59 -35 -12 0 -21 -5 -21 -11 0 -5 -4 -7 -10 -4 -5 3 -7 0 -4 -9 4 -11 -4 -17 -30 -22 -33 -6 -35 -8 -19 -20 24 -18 33 -17 33 1 0 8 7 15 15 15 8 0 15 -7 15 -16 0 -11 8 -14 28 -12 19 2 26 8 24 21 -2 11 4 17 17 17 11 0 23 5 26 11 4 6 20 8 38 4 24 -5 28 -3 17 4 -13 9 -12 13 5 28 11 10 31 17 45 16 14 -1 18 0 8 3 -41 12 -12 41 40 40 26 -1 42 3 42 11 0 14 -23 21 -68 21 -26 1 -35 -5 -42 -24z"/>
<path d="M5350 5212 c0 -4 10 -13 23 -21 19 -13 21 -12 10 1 -7 8 -10 18 -6 21 3 4 -1 7 -10 7 -9 0 -17 -3 -17 -8z"/>
<path d="M4860 5120 c-19 -15 -21 -20 -9 -20 16 0 46 27 38 35 -2 2 -15 -5 -29 -15z"/>
<path d="M4927 5066 c-4 -10 -1 -13 9 -9 8 3 14 -1 14 -9 0 -9 13 -14 40 -15 22 -1 40 2 40 7 0 4 -9 6 -20 3 -11 -3 -20 0 -20 6 0 5 -6 8 -14 5 -7 -3 -16 2 -19 10 -8 20 -23 21 -30 2z"/>
<path d="M4768 5054 c-30 -16 -35 -28 -16 -40 7 -4 8 -3 4 4 -4 7 -1 12 6 13 7 1 24 2 38 2 15 1 26 9 28 20 4 21 -22 22 -60 1z"/>
<path d="M6464 5047 c-15 -13 -23 -26 -18 -29 5 -2 22 8 39 24 36 34 18 38 -21 5z"/>
<path d="M6507 4990 c-16 -10 -25 -20 -20 -23 5 -3 22 5 39 18 34 28 22 32 -19 5z"/>
<path d="M5604 4975 c8 -8 20 -15 27 -15 7 0 4 6 -7 15 -25 19 -40 19 -20 0z"/>
<path d="M6564 4945 c-15 -11 -16 -14 -3 -15 8 0 24 7 35 15 15 11 16 14 3 15 -8 0 -24 -7 -35 -15z"/>
<path d="M8492 4830 c-14 -23 -15 -30 -3 -30 8 0 24 41 18 47 -2 1 -8 -7 -15 -17z"/>
<path d="M8420 4816 c0 -2 11 -6 25 -8 14 -3 25 -1 25 3 0 5 -11 9 -25 9 -14 0 -25 -2 -25 -4z"/>
<path d="M6645 4789 c-11 -16 -2 -17 30 -3 l30 13 -27 1 c-15 0 -30 -5 -33 -11z"/>
<path d="M6750 4760 c-21 -7 -21 -8 -5 -9 11 0 27 4 35 9 18 11 5 11 -30 0z"/>
<path d="M8207 4662 c1 -8 3 -15 3 -17 0 -2 9 -1 19 2 12 3 17 11 14 19 -4 11 -9 12 -18 4 -7 -6 -15 -7 -17 -3 -3 4 -3 2 -1 -5z"/>
<path d="M6726 4656 c3 -9 10 -14 14 -11 4 2 27 -16 51 -40 24 -25 49 -45 55 -45 5 0 25 -11 44 -25 19 -14 45 -25 58 -25 24 0 25 1 7 20 -10 11 -37 29 -61 41 -24 11 -42 25 -39 30 3 4 -9 12 -27 17 -22 6 -33 14 -32 25 1 10 -5 17 -15 17 -9 0 -26 3 -39 6 -18 5 -21 3 -16 -10z"/>
<path d="M8323 4632 c-25 -4 -27 -10 -15 -30 6 -8 16 -10 29 -5 27 11 15 39 -14 35z"/>
<path d="M8180 4613 c-8 -2 -24 -23 -35 -46 -13 -28 -27 -43 -42 -45 -18 -3 -23 -10 -23 -34 0 -26 2 -29 15 -18 8 7 15 19 15 26 0 8 11 16 25 20 17 4 25 13 25 29 0 25 15 41 44 46 16 3 17 6 5 15 -8 6 -21 9 -29 7z"/>
<path d="M8423 4574 c-18 -8 -4 -34 19 -34 13 0 18 6 16 17 -3 18 -16 24 -35 17z"/>
<path d="M8277 4563 c-9 -2 -15 -9 -12 -14 11 -17 -15 -49 -41 -49 -22 0 -23 -2 -14 -21 9 -16 17 -19 40 -14 22 5 31 2 39 -14 11 -19 140 -111 157 -111 5 0 20 -10 34 -23 42 -38 84 -64 98 -60 6 3 12 -1 12 -7 0 -16 113 -125 127 -122 6 1 14 -6 17 -16 8 -25 42 -56 50 -44 8 14 -5 52 -18 52 -16 0 -56 42 -56 58 0 7 -11 12 -24 12 -33 0 -56 54 -33 77 14 15 18 15 41 -1 14 -9 26 -25 26 -36 0 -13 7 -20 18 -20 23 0 52 -30 52 -53 0 -9 7 -17 15 -17 8 0 15 5 15 11 0 5 -4 7 -10 4 -5 -3 -10 1 -10 10 0 9 7 15 16 13 10 -2 19 4 22 12 3 8 1 12 -3 8 -5 -4 -15 -2 -23 4 -8 7 -24 12 -35 13 -29 0 -53 46 -32 61 17 13 20 34 4 34 -5 0 -8 -4 -5 -9 3 -5 -1 -14 -9 -21 -20 -17 -65 5 -65 32 0 10 -1 21 -1 26 -1 4 9 13 22 19 13 7 18 13 12 13 -7 0 -13 12 -13 26 0 22 -3 24 -14 15 -8 -7 -12 -21 -9 -32 3 -11 -1 -27 -10 -37 -8 -9 -17 -30 -19 -47 -5 -44 -41 -47 -66 -6 -10 17 -21 28 -25 25 -3 -4 -22 4 -42 16 -41 26 -45 59 -7 75 12 5 20 16 17 23 -8 22 13 52 33 46 16 -5 16 -5 0 6 -10 6 -18 20 -18 30 0 12 -7 20 -16 20 -11 0 -14 -5 -9 -17 8 -21 8 -22 6 -45 -1 -12 -9 -18 -25 -18 -21 0 -24 -5 -23 -27 2 -24 -2 -29 -25 -31 -42 -5 -70 15 -66 46 3 23 7 27 35 26 32 -2 32 -2 15 22 -9 13 -27 24 -39 24 -17 0 -22 -7 -25 -32 -4 -43 -35 -49 -67 -14 -26 28 -23 55 8 63 13 3 17 11 14 24 -3 10 -8 18 -12 18 -3 -1 -14 -3 -24 -6z"/>
<path d="M8614 4525 c6 -13 14 -21 18 -19 13 8 9 18 -11 31 -17 11 -18 10 -7 -12z"/>
<path d="M8580 4463 c1 -14 30 -47 36 -41 10 11 -7 48 -22 48 -8 0 -14 -3 -14 -7z"/>
<path d="M7200 4440 c0 -5 21 -9 48 -9 42 1 44 2 17 9 -44 11 -65 11 -65 0z"/>
<path d="M7360 4440 c0 -12 117 -14 124 -2 3 5 -24 9 -60 10 -37 1 -64 -2 -64 -8z"/>
<path d="M8014 4439 c-12 -4 -25 -13 -29 -19 -6 -9 -10 -9 -17 1 -6 10 -7 6 -3 -11 4 -18 -2 -35 -20 -59 -14 -19 -25 -37 -25 -40 0 -6 63 51 73 67 4 7 17 21 29 31 25 24 21 41 -8 30z"/>
<path d="M8163 4417 c-1 -10 -21 -36 -45 -58 -32 -31 -35 -35 -12 -20 17 11 37 27 44 36 7 8 17 15 22 15 15 0 40 29 33 39 -10 17 -41 8 -42 -12z"/>
<path d="M8550 4388 c11 -10 20 -28 20 -38 0 -13 7 -20 20 -20 21 0 27 15 10 25 -5 3 -10 14 -10 24 0 13 -9 20 -30 23 -30 5 -30 4 -10 -14z"/>
<path d="M4085 4363 c0 -15 5 -29 10 -31 16 -5 17 21 2 41 -12 17 -13 16 -12 -10z"/>
<path d="M8283 4374 c-3 -11 -18 -35 -32 -54 l-25 -35 29 25 c63 55 65 58 49 70 -11 10 -15 8 -21 -6z"/>
<path d="M8750 4360 c0 -5 -7 -7 -16 -3 -14 5 -15 3 -5 -15 15 -29 26 -28 29 3 1 14 0 25 -3 25 -3 0 -5 -4 -5 -10z"/>
<path d="M8390 4310 c0 -5 -13 -23 -30 -41 -16 -18 -27 -35 -24 -38 3 -3 11 2 18 12 7 9 18 17 23 17 10 0 43 32 43 42 0 3 -7 8 -15 12 -8 3 -15 1 -15 -4z"/>
<path d="M7887 4270 c-10 -16 -16 -30 -14 -30 2 0 13 14 25 30 13 17 19 30 14 30 -4 0 -16 -13 -25 -30z"/>
<path d="M3772 4216 c1 -31 3 -34 20 -25 12 6 17 17 14 26 -3 8 -6 19 -6 24 0 5 -7 9 -15 9 -10 0 -14 -10 -13 -34z"/>
<path d="M8473 4238 c-6 -7 -13 -25 -17 -40 l-6 -26 34 31 c19 18 32 35 30 39 -8 12 -30 9 -41 -4z"/>
<path d="M4130 4184 c0 -17 23 -44 38 -43 10 0 12 3 5 6 -7 2 -13 13 -13 24 0 10 -7 19 -15 19 -8 0 -15 -3 -15 -6z"/>
<path d="M9484 4015 c0 -99 2 -138 3 -87 2 51 2 132 0 180 -1 48 -3 6 -3 -93z"/>
<path d="M8556 4135 c-15 -19 -24 -35 -21 -35 11 0 75 52 75 61 0 21 -30 6 -54 -26z"/>
<path d="M3753 4145 c-9 -10 -8 -14 8 -18 20 -5 24 0 11 19 -5 9 -10 8 -19 -1z"/>
<path d="M5700 4123 c0 -15 19 -24 98 -48 190 -57 333 -151 435 -288 30 -40 61 -88 70 -107 44 -99 83 -230 68 -230 -3 0 -19 7 -36 16 -83 43 -208 55 -308 29 -127 -33 -252 -150 -289 -269 -51 -164 -49 -286 6 -460 47 -147 165 -265 322 -322 101 -36 249 -34 339 7 11 5 31 13 45 19 139 59 251 203 307 393 24 80 27 110 28 232 0 146 -8 201 -51 339 -73 233 -240 439 -444 548 -25 13 -54 29 -65 35 -11 6 -31 15 -45 21 -14 5 -49 20 -78 31 -70 29 -206 57 -314 66 -82 7 -88 6 -88 -12z m656 -770 l41 -17 7 -75 c26 -316 -31 -650 -127 -729 -46 -39 -134 -31 -164 14 -41 63 -53 131 -53 297 0 245 30 390 99 471 47 56 121 70 197 39z"/>
<path d="M4170 4088 c11 -24 20 -51 20 -61 0 -17 66 -157 79 -167 13 -11 99 -146 105 -167 10 -32 35 -50 46 -33 5 9 -2 24 -21 44 -16 17 -29 40 -29 51 0 11 -15 41 -32 66 -31 43 -122 219 -147 282 -6 15 -17 27 -25 27 -13 0 -12 -7 4 -42z"/>
<path d="M8656 4094 c-3 -8 -6 -24 -6 -35 0 -10 -4 -19 -10 -19 -5 0 -14 -9 -20 -20 -19 -36 16 -12 44 30 21 31 23 40 12 49 -10 9 -15 8 -20 -5z"/>
<path d="M3690 4060 c0 -5 9 -14 20 -20 16 -8 20 -8 20 4 0 7 -7 17 -16 20 -21 8 -24 8 -24 -4z"/>
<path d="M8830 4063 c-29 -11 -28 -26 5 -69 19 -24 36 -53 40 -64 3 -11 13 -20 21 -20 17 0 18 14 3 42 -6 12 -16 41 -23 66 -11 47 -20 55 -46 45z"/>
<path d="M8730 4032 c0 -11 -4 -24 -10 -27 -5 -3 -10 -14 -10 -23 0 -14 3 -14 18 4 9 12 23 23 30 26 10 2 8 9 -7 22 -21 19 -21 19 -21 -2z"/>
<path d="M3660 3975 c-10 -12 -10 -15 4 -15 9 0 16 7 16 15 0 8 -2 15 -4 15 -2 0 -9 -7 -16 -15z"/>
<path d="M7915 3940 c-10 -17 12 -37 25 -24 8 8 6 15 -4 23 -10 9 -16 9 -21 1z"/>
<path d="M8855 3867 c-4 -10 -5 -21 -1 -24 10 -10 18 4 13 24 -4 17 -4 17 -12 0z"/>
<path d="M7940 3830 c0 -27 3 -31 18 -25 9 4 25 7 35 7 10 -1 16 4 14 11 -3 7 -10 11 -17 9 -7 -2 -21 5 -31 14 -18 16 -19 16 -19 -16z"/>
<path d="M3591 3764 c-14 -32 -12 -37 12 -19 14 10 16 18 10 30 -8 14 -11 12 -22 -11z"/>
<path d="M8066 3748 c-15 -21 -13 -38 4 -38 5 0 7 7 4 15 -4 8 -1 22 6 30 7 8 10 15 7 15 -3 0 -13 -10 -21 -22z"/>
<path d="M7960 3730 c0 -26 35 -64 49 -55 6 3 8 11 5 17 -4 6 2 18 12 26 18 14 18 14 -3 9 -13 -3 -27 1 -34 9 -16 20 -29 17 -29 -6z"/>
<path d="M4320 3685 c0 -14 44 -85 62 -101 l22 -19 -18 29 c-10 16 -27 44 -38 63 -18 30 -28 40 -28 28z"/>
<path d="M3572 3668 c-15 -15 -16 -38 -2 -38 12 0 23 25 18 40 -2 7 -7 7 -16 -2z"/>
<path d="M7980 3632 c0 -17 6 -22 24 -22 13 0 27 -6 29 -12 3 -7 6 -3 6 9 1 17 -3 21 -15 16 -11 -4 -22 1 -30 12 -13 18 -14 18 -14 -3z"/>
<path d="M8069 3642 c7 -5 10 -15 7 -21 -4 -6 -2 -11 4 -11 17 0 8 33 -10 37 -12 4 -13 3 -1 -5z"/>
<path d="M4420 3618 c1 -7 16 -31 35 -53 31 -35 35 -37 35 -18 0 12 -13 36 -30 53 -32 33 -40 36 -40 18z"/>
<path d="M3556 3572 c-3 -6 -4 -29 0 -50 5 -32 10 -39 24 -35 15 4 17 10 10 33 -12 43 -26 64 -34 52z"/>
<path d="M4410 3525 c0 -8 7 -15 16 -15 14 0 14 3 4 15 -7 8 -14 15 -16 15 -2 0 -4 -7 -4 -15z"/>
<path d="M8042 3525 c-15 -17 -32 -20 -32 -5 0 6 -4 10 -10 10 -5 0 -10 -9 -10 -19 0 -13 6 -18 18 -16 9 2 18 4 20 5 2 3 18 7 30 9 10 1 12 31 3 31 -3 -1 -12 -7 -19 -15z"/>
<path d="M8108 3455 c-3 -14 -1 -25 3 -25 5 0 9 11 9 25 0 14 -2 25 -4 25 -2 0 -6 -11 -8 -25z"/>
<path d="M4480 3442 c0 -5 6 -17 14 -27 15 -21 11 -45 -9 -45 -8 0 -11 -8 -8 -20 4 -14 0 -20 -12 -20 -15 0 -14 -4 4 -34 19 -30 19 -35 6 -46 -10 -8 -12 -17 -6 -24 6 -6 15 -24 20 -40 10 -26 10 -27 -11 -20 -22 6 -22 6 -7 -12 25 -30 30 -53 12 -62 -14 -8 -14 -10 1 -15 9 -4 16 -2 16 3 0 6 5 10 10 10 7 0 7 -6 2 -17 -5 -10 -7 -24 -5 -30 8 -21 -25 -26 -55 -9 -26 17 -27 17 -5 -1 12 -10 38 -29 57 -43 48 -34 48 -55 -1 -47 -42 7 -36 -2 22 -32 40 -21 58 -14 35 14 -9 11 -9 15 -1 15 19 0 13 247 -6 285 -11 20 -12 30 -4 33 6 2 11 10 11 18 0 9 5 12 11 8 6 -3 4 5 -6 19 -10 16 -12 27 -6 31 11 7 -12 68 -38 99 -14 17 -41 23 -41 9z"/>
<path d="M8915 3430 c-4 -7 -1 -16 6 -21 17 -10 26 8 11 23 -6 6 -12 6 -17 -2z"/>
<path d="M7995 3420 c-3 -5 3 -14 14 -20 26 -13 35 2 11 18 -11 7 -21 8 -25 2z"/>
<path d="M8513 3355 c5 -14 39 -13 44 2 3 9 -4 12 -21 11 -15 -1 -25 -7 -23 -13z"/>
<path d="M3600 3334 c0 -21 12 -45 43 -81 23 -28 53 -65 67 -82 l26 -32 -1 28 c0 15 -2 30 -5 33 -3 3 -17 21 -30 40 -13 19 -32 44 -42 55 -9 11 -26 31 -37 45 l-20 25 -1 -31z"/>
<path d="M8000 3310 c0 -11 7 -20 15 -20 13 0 14 4 5 20 -6 11 -13 20 -15 20 -3 0 -5 -9 -5 -20z"/>
<path d="M8040 3320 c-13 -8 -13 -11 0 -24 13 -14 15 -13 15 9 0 14 0 25 0 25 0 0 -7 -5 -15 -10z"/>
<path d="M8457 3316 c-3 -8 1 -17 9 -20 8 -3 14 1 14 9 0 20 -17 28 -23 11z"/>
<path d="M8577 3260 c-3 -13 1 -21 13 -25 22 -7 33 -74 14 -82 -19 -7 -35 6 -50 43 -8 19 -21 34 -29 34 -21 0 -19 -7 10 -38 14 -15 28 -35 31 -45 9 -27 -15 -49 -48 -45 -17 3 -29 -1 -33 -10 -4 -11 1 -13 22 -10 16 3 35 8 44 12 10 4 23 1 31 -8 13 -13 18 -12 40 2 14 9 23 23 21 30 -3 7 6 21 19 32 23 19 23 19 2 20 -16 0 -28 13 -43 45 -12 25 -21 49 -21 55 0 18 -18 11 -23 -10z"/>
<path d="M7990 3210 c0 -5 -9 -19 -20 -30 -11 -11 -15 -20 -9 -20 7 0 9 -11 6 -29 -3 -16 -1 -34 6 -41 10 -10 8 -12 -6 -7 -10 4 -16 3 -12 -2 3 -5 -1 -12 -7 -14 -10 -4 -10 -6 0 -6 17 -1 15 -40 -3 -47 -8 -4 -22 -29 -30 -57 -22 -75 -21 -81 15 -60 17 9 30 22 30 27 0 5 3 7 6 4 3 -4 15 3 25 13 13 13 27 18 39 14 13 -4 22 1 30 15 13 24 27 25 52 3 10 -9 18 -11 18 -5 0 6 2 17 5 24 4 9 -4 19 -18 25 -19 9 -26 8 -35 -8 -9 -14 -17 -17 -34 -10 -16 6 -27 4 -37 -6 -12 -14 -15 -13 -23 1 -11 19 -3 36 18 36 8 0 14 9 14 20 0 22 28 28 47 9 7 -7 12 -4 16 10 6 23 -30 52 -42 34 -3 -6 -16 -12 -28 -15 -18 -5 -23 -2 -23 13 0 11 7 22 16 26 8 3 20 17 25 31 8 20 6 29 -10 43 -23 21 -31 24 -31 9z"/>
<path d="M8803 3208 c-8 -14 -13 -38 -8 -38 1 0 10 11 19 25 9 14 12 25 7 25 -5 0 -13 -6 -18 -12z"/>
<path d="M8071 3201 c-12 -8 -12 -12 2 -26 16 -15 17 -15 15 9 -1 14 -3 26 -3 26 0 0 -6 -4 -14 -9z"/>
<path d="M8426 3194 c-3 -8 1 -14 8 -14 8 0 21 -12 31 -26 9 -14 19 -23 23 -20 3 4 0 12 -6 18 -7 7 -12 20 -12 29 0 21 -37 32 -44 13z"/>
<path d="M4350 3190 c0 -5 10 -15 23 -21 22 -12 22 -12 3 10 -21 23 -26 26 -26 11z"/>
<path d="M8365 3154 c31 -29 36 -28 24 4 -5 13 -17 22 -30 22 -21 0 -21 -1 6 -26z"/>
<path d="M8180 3153 c0 -13 5 -23 12 -23 7 0 23 -12 36 -27 18 -22 21 -23 12 -6 -5 12 -9 27 -8 34 2 6 -6 13 -16 15 -10 1 -23 9 -27 16 -6 9 -9 6 -9 -9z"/>
<path d="M8270 3156 c0 -9 7 -16 15 -16 8 0 15 -4 15 -8 0 -5 6 -16 13 -26 12 -16 13 -14 9 18 -2 20 -8 36 -12 36 -5 0 -15 3 -24 6 -11 4 -16 1 -16 -10z"/>
<path d="M3782 3094 c42 -58 48 -62 48 -25 0 20 -8 36 -26 50 -47 37 -58 25 -22 -25z"/>
<path d="M8097 3119 c-4 -14 0 -19 14 -19 11 0 28 -17 44 -44 24 -42 51 -63 63 -51 3 3 -4 12 -16 21 -25 17 -55 70 -48 82 3 5 -8 13 -24 19 -24 9 -29 8 -33 -8z"/>
<path d="M8408 3095 c2 -13 10 -30 18 -36 8 -6 14 -20 14 -30 0 -11 5 -19 10 -19 6 0 10 13 10 29 0 21 -6 32 -20 36 -11 3 -20 13 -20 20 0 8 -4 16 -9 19 -4 3 -6 -6 -3 -19z"/>
<path d="M8319 3054 c-14 -17 -49 -18 -49 -1 0 8 -3 7 -10 -3 -6 -10 -5 -17 5 -23 8 -4 15 -19 15 -32 0 -18 4 -23 16 -18 10 4 12 9 5 16 -13 13 4 47 24 47 8 0 20 -9 27 -20 17 -26 23 -25 24 3 2 29 -39 52 -57 31z"/>
<path d="M8594 3024 c5 -18 2 -30 -9 -38 -17 -12 -12 -46 7 -46 5 0 6 5 2 12 -4 7 -3 8 5 4 8 -6 5 -15 -14 -33 -22 -23 -29 -25 -50 -15 -30 14 -31 8 -7 -22 9 -13 23 -21 31 -18 8 3 11 0 7 -6 -10 -17 9 -23 29 -9 12 9 19 34 24 80 4 37 12 72 18 78 17 17 4 39 -24 39 -22 0 -24 -3 -19 -26z"/>
<path d="M3886 3001 c-7 -10 22 -37 30 -28 9 8 -3 37 -15 37 -5 0 -12 -4 -15 -9z"/>
<path d="M8490 2940 c0 -5 7 -10 15 -10 8 0 15 5 15 10 0 6 -7 10 -15 10 -8 0 -15 -4 -15 -10z"/>
<path d="M4004 2929 c-3 -6 -1 -16 5 -22 8 -8 11 -5 11 11 0 24 -5 28 -16 11z"/>
<path d="M8422 2910 c9 -27 28 -50 28 -35 0 9 -30 65 -35 65 -2 0 1 -14 7 -30z"/>
<path d="M4454 2891 c15 -16 45 -35 66 -44 35 -14 39 -13 43 2 3 14 -1 17 -17 14 -13 -3 -36 7 -60 26 -49 39 -69 40 -32 2z"/>
<path d="M4584 2863 c-9 -32 -18 -71 -20 -88 -6 -43 -14 -67 -35 -97 -11 -14 -19 -36 -19 -48 0 -13 -8 -24 -18 -27 -10 -2 -24 -19 -32 -36 -7 -18 -15 -35 -18 -40 -2 -4 4 -4 13 -1 9 4 31 31 50 60 37 58 72 72 82 34 4 -15 11 -18 29 -14 15 4 24 2 24 -5 0 -7 9 -9 25 -5 21 5 25 3 25 -15 0 -16 6 -20 23 -19 19 2 23 7 19 25 -2 13 -9 23 -14 23 -5 0 -7 4 -4 9 3 5 -1 14 -9 21 -9 7 -13 21 -10 31 3 9 1 20 -4 24 -6 3 -13 28 -17 56 -4 27 -11 52 -15 55 -5 3 -9 16 -9 28 0 13 -7 29 -15 36 -8 7 -15 21 -15 31 0 38 -19 17 -36 -38z m23 -130 c2 -6 -3 -13 -12 -16 -10 -5 -15 0 -15 14 0 21 21 22 27 2z m-7 -58 c0 -8 -9 -15 -20 -15 -11 0 -20 7 -20 15 0 8 9 15 20 15 11 0 20 -7 20 -15z"/>
<path d="M8330 2911 c0 -5 9 -19 21 -32 11 -13 18 -17 15 -9 -3 8 -9 23 -12 33 -7 18 -24 24 -24 8z"/>
<path d="M8182 2868 c2 -6 10 -14 16 -16 7 -2 10 2 6 12 -7 18 -28 22 -22 4z"/>
<path d="M8535 2840 c-8 -13 16 -38 33 -32 22 7 12 -15 -15 -33 -32 -21 -60 -9 -55 24 2 12 -2 21 -10 21 -20 0 -16 -49 5 -56 9 -3 17 -9 17 -14 0 -11 40 -8 61 5 9 6 18 24 21 41 3 26 1 30 -14 26 -12 -3 -18 0 -16 8 4 16 -18 25 -27 10z"/>
<path d="M4473 2820 c14 -11 29 -20 33 -20 4 0 -1 9 -11 20 -10 11 -25 20 -33 20 -9 0 -6 -7 11 -20z"/>
<path d="M4182 2813 c6 -8 19 -18 28 -23 12 -6 16 -4 17 11 1 10 -1 20 -5 20 -41 8 -52 6 -40 -8z"/>
<path d="M8040 2806 c0 -8 5 -18 10 -21 6 -3 10 1 10 9 0 8 -4 18 -10 21 -5 3 -10 -1 -10 -9z"/>
<path d="M4435 2776 c65 -38 97 -47 75 -21 -7 8 -22 15 -33 15 -11 0 -28 6 -36 14 -9 7 -27 17 -41 20 -14 4 2 -9 35 -28z"/>
<path d="M4265 2779 c-3 -4 1 -9 9 -12 8 -3 17 0 19 7 5 13 -21 18 -28 5z"/>
<path d="M4312 2761 c-10 -6 -2 -11 24 -16 46 -8 107 -38 135 -66 l21 -21 -4 23 c-2 19 -17 29 -70 49 -37 15 -71 29 -74 33 -9 9 -16 9 -32 -2z"/>
<path d="M8413 2743 c-3 -10 -8 -21 -10 -25 -2 -5 2 -8 10 -8 17 0 30 37 16 46 -5 3 -12 -3 -16 -13z"/>
<path d="M7991 2745 c0 -18 28 -61 29 -44 0 8 -7 24 -15 35 -8 10 -14 15 -14 9z"/>
<path d="M8350 2705 c0 -8 7 -15 16 -15 14 0 14 3 4 15 -7 8 -14 15 -16 15 -2 0 -4 -7 -4 -15z"/>
<path d="M7880 2642 c0 -22 4 -52 10 -66 5 -14 11 -44 14 -67 3 -24 13 -50 22 -58 14 -15 17 -14 31 7 17 24 42 29 61 10 9 -9 15 -10 20 -2 11 17 35 22 54 13 24 -13 31 15 9 35 -17 16 -19 15 -23 -2 -3 -11 -17 -21 -31 -24 -20 -4 -27 0 -31 16 -6 19 -7 20 -17 4 -12 -21 -49 -24 -67 -6 -15 15 -16 50 -1 65 7 7 3 15 -15 26 -18 12 -24 25 -24 47 1 17 -2 33 -5 37 -4 3 -7 -12 -7 -35z"/>
<path d="M8114 2609 c-3 -5 -13 -9 -23 -9 -10 0 -18 -6 -18 -14 0 -13 3 -13 20 -1 14 10 26 11 37 5 13 -7 22 -5 30 5 7 8 9 15 4 16 -5 0 -17 2 -26 4 -10 2 -20 -1 -24 -6z"/>
<path d="M8030 2595 c0 -8 6 -15 13 -15 8 0 14 7 14 15 0 8 -6 15 -14 15 -7 0 -13 -7 -13 -15z"/>
<path d="M7955 2591 c-3 -5 5 -17 17 -25 22 -16 48 -22 35 -9 -4 3 -1 13 6 21 8 11 8 14 0 9 -6 -4 -14 -3 -18 3 -8 13 -32 13 -40 1z"/>
<path d="M7815 2570 c-19 -8 -19 -9 2 -9 12 -1 25 4 28 9 7 12 -2 12 -30 0z"/>
<path d="M4730 2540 c0 -17 36 -47 63 -52 24 -5 24 -3 -10 29 -36 34 -53 41 -53 23z"/>
<path d="M7217 2506 c-30 -16 -37 -26 -32 -42 4 -18 -1 -23 -25 -28 -22 -4 -30 -11 -30 -27 0 -11 -10 -29 -22 -38 -27 -22 -16 -41 24 -41 29 0 30 2 25 30 -4 17 -2 31 3 31 6 1 16 2 23 3 6 0 13 14 15 29 4 30 9 33 60 41 19 2 37 8 40 12 4 4 -1 4 -10 1 -23 -8 -47 31 -27 44 29 18 -8 6 -44 -15z"/>
<path d="M8156 2515 c-6 -15 21 -41 31 -31 4 4 1 11 -6 16 -11 6 -10 9 5 12 17 3 17 4 -3 10 -13 4 -24 1 -27 -7z"/>
<path d="M7850 2480 c0 -5 7 -10 15 -10 8 0 15 5 15 10 0 6 -7 10 -15 10 -8 0 -15 -4 -15 -10z"/>
<path d="M7736 2472 c-3 -5 8 -6 25 -4 16 2 29 6 29 8 0 8 -49 4 -54 -4z"/>
<path d="M4816 2446 c6 -16 44 -29 44 -15 0 5 -7 9 -15 9 -8 0 -15 5 -15 10 0 6 -4 10 -10 10 -5 0 -7 -6 -4 -14z"/>
<path d="M4260 2407 c-62 -33 -71 -39 -67 -44 6 -6 84 33 92 47 8 13 5 13 -25 -3z"/>
<path d="M8024 2403 c-10 -16 -16 -16 -44 -6 -40 15 -54 9 -40 -18 11 -20 45 -26 55 -10 5 10 36 7 54 -3 16 -10 21 25 7 40 -18 18 -19 18 -32 -3z"/>
<path d="M8104 2399 c-8 -14 18 -31 30 -19 9 9 0 30 -14 30 -5 0 -12 -5 -16 -11z"/>
<path d="M4837 2393 c-4 -3 -6 -20 -6 -37 1 -17 3 -23 6 -14 2 9 18 20 34 23 28 6 29 8 12 21 -20 15 -36 18 -46 7z"/>
<path d="M7772 2384 c10 -9 128 -14 128 -5 0 5 -30 9 -67 10 -36 0 -64 -2 -61 -5z"/>
<path d="M3854 2347 c-95 -97 -109 -114 -110 -132 0 -11 -5 -28 -9 -38 -4 -10 -5 -21 -1 -24 3 -4 6 -1 6 7 0 15 100 140 112 140 4 0 8 5 8 12 0 7 12 25 27 40 18 18 22 28 12 28 -8 0 -28 -15 -45 -33z"/>
<path d="M4065 2311 c-44 -21 -87 -46 -95 -57 -12 -15 -9 -14 17 4 17 12 34 22 38 22 10 0 135 62 135 66 0 8 -17 1 -95 -35z"/>
<path d="M4913 2327 c1 -7 -5 -12 -14 -11 -11 1 -14 -6 -11 -28 l5 -30 15 32 c8 17 18 28 21 23 7 -10 52 -12 46 -2 -3 4 -18 12 -35 17 -22 8 -29 8 -27 -1z"/>
<path d="M8201 2316 c-9 -10 -8 -15 4 -20 9 -3 14 -2 10 3 -3 5 0 11 7 13 8 3 9 6 1 11 -6 4 -16 1 -22 -7z"/>
<path d="M7060 2302 c0 -14 8 -18 38 -19 20 0 31 2 25 4 -7 3 -13 11 -13 19 0 8 -10 14 -25 14 -17 0 -25 -5 -25 -18z"/>
<path d="M7972 2273 c4 -44 20 -53 36 -18 14 30 42 33 49 5 7 -26 19 -26 26 1 5 18 12 21 40 17 28 -3 57 9 57 25 0 5 -51 0 -76 -8 -12 -4 -25 -2 -28 4 -5 7 -13 7 -26 -2 -16 -9 -24 -9 -40 1 -32 20 -41 14 -38 -25z"/>
<path d="M7688 2293 c12 -2 32 -2 45 0 12 2 2 4 -23 4 -25 0 -35 -2 -22 -4z"/>
<path d="M7840 2290 c-74 -6 -74 -6 -20 -9 30 -1 67 -5 83 -7 20 -3 27 -1 27 11 0 8 -3 14 -7 13 -5 -1 -42 -4 -83 -8z"/>
<path d="M4978 2273 c-5 -18 -2 -21 18 -19 31 3 44 16 17 16 -12 0 -23 6 -25 12 -3 7 -7 3 -10 -9z"/>
<path d="M5026 2235 c-3 -9 -10 -13 -16 -10 -12 8 -13 -5 -1 -24 7 -10 13 -11 30 -1 19 10 20 14 9 28 -7 9 -13 18 -14 20 -1 2 -4 -4 -8 -13z"/>
<path d="M7040 2230 c8 -5 26 -10 39 -10 32 0 24 6 -19 14 -25 4 -31 3 -20 -4z"/>
<path d="M8140 2213 c-15 -15 -32 -22 -44 -19 -11 3 -27 1 -37 -5 -14 -7 -23 -4 -39 13 -19 21 -20 21 -20 2 0 -11 -5 -25 -10 -30 -8 -8 -6 -15 5 -24 11 -9 15 -9 15 -1 0 17 42 30 63 19 12 -6 23 -6 33 2 7 7 25 10 38 8 20 -4 25 0 29 21 8 37 -4 41 -33 14z"/>
<path d="M5076 2212 c-3 -6 0 -12 6 -15 9 -3 8 -9 -5 -19 -17 -13 -17 -15 -3 -27 9 -7 24 -10 37 -6 12 4 17 10 12 14 -6 3 -17 19 -25 35 -9 16 -18 24 -22 18z"/>
<path d="M3845 2157 c-36 -37 -55 -67 -64 -100 -8 -26 -18 -50 -22 -53 -5 -3 -9 -24 -8 -47 l1 -42 9 43 c13 67 79 192 110 208 24 12 47 44 32 44 -4 0 -30 -24 -58 -53z"/>
<path d="M7825 2179 c28 -4 68 -10 91 -14 31 -6 41 -4 41 6 0 11 -22 14 -91 15 -76 1 -83 0 -41 -7z"/>
<path d="M8165 2140 c-5 -16 -13 -21 -34 -18 -17 1 -34 -5 -47 -18 -21 -21 -21 -21 -2 -33 11 -7 21 -11 21 -9 16 31 29 44 50 46 27 3 44 29 28 45 -5 5 -12 1 -16 -13z"/>
<path d="M6960 2119 c0 -5 11 -9 25 -9 14 0 25 2 25 4 0 2 -11 6 -25 8 -14 3 -25 1 -25 -3z"/>
<path d="M8005 2070 c10 -11 22 -17 27 -14 12 8 -11 34 -30 34 -13 0 -12 -3 3 -20z"/>
<path d="M6736 2072 c-4 -7 -4 -17 0 -23 4 -7 -4 -10 -25 -7 -19 2 -35 -3 -40 -10 -5 -8 -17 -13 -27 -11 -11 1 -32 -3 -49 -10 -16 -7 -43 -11 -60 -10 -37 3 -145 -28 -145 -41 0 -12 1 -12 60 -14 51 -2 223 -83 255 -119 22 -25 85 -49 85 -32 0 14 -24 54 -30 50 -5 -3 -10 2 -14 10 -6 18 5 20 22 3 8 -8 15 -8 26 1 8 7 19 10 24 7 6 -4 7 8 2 29 -4 19 -4 33 0 30 5 -3 12 0 15 6 4 5 13 8 20 5 9 -3 12 5 10 27 -2 22 -8 32 -18 31 -19 -2 -11 25 12 43 13 10 13 12 2 13 -8 0 -19 -6 -25 -14 -11 -15 -80 -11 -71 4 2 4 -2 15 -9 25 -9 13 -15 15 -20 7z m38 -104 c-9 -14 -23 2 -17 18 4 12 8 13 14 3 4 -7 5 -17 3 -21z"/>
<path d="M7843 2073 c9 -2 25 -2 35 0 9 3 1 5 -18 5 -19 0 -27 -2 -17 -5z"/>
<path d="M8174 2055 c-9 -19 -9 -25 2 -29 19 -7 18 -52 -2 -60 -14 -5 -14 -7 0 -22 9 -8 20 -12 26 -9 18 11 10 -7 -12 -26 -25 -22 -32 -24 -22 -6 6 8 3 8 -9 -1 -9 -8 -21 -11 -27 -7 -5 3 -10 -1 -10 -9 0 -8 -9 -20 -20 -26 -17 -9 -18 -14 -7 -31 10 -17 9 -22 -6 -34 -11 -7 -25 -11 -33 -8 -8 3 -17 -2 -20 -11 -3 -9 -12 -16 -20 -16 -8 0 -15 -6 -15 -12 -1 -7 -2 -17 -4 -23 -1 -5 -3 -25 -3 -43 -2 -29 -4 -32 -27 -26 -28 7 -35 -10 -10 -24 13 -6 14 -14 6 -35 -8 -21 -8 -25 4 -20 8 3 15 11 15 19 0 8 9 19 21 26 11 7 30 29 41 48 12 19 39 52 60 73 21 21 38 46 38 55 0 10 16 35 35 55 19 20 35 42 35 48 0 6 9 22 19 35 23 29 18 56 -12 69 -15 7 -22 19 -22 37 -1 37 -8 41 -21 13z"/>
<path d="M8088 2021 c-14 -17 -14 -20 -2 -25 15 -6 57 28 47 38 -11 11 -29 6 -45 -13z"/>
<path d="M8017 2002 c-21 -23 -21 -28 -2 -36 9 -3 19 3 26 15 15 29 -3 45 -24 21z"/>
<path d="M5010 1986 c0 -8 5 -18 10 -21 6 -3 10 1 10 9 0 8 -4 18 -10 21 -5 3 -10 -1 -10 -9z"/>
<path d="M8093 1943 c-18 -18 -27 -21 -41 -14 -14 7 -21 5 -30 -9 -8 -14 -8 -21 -1 -26 6 -4 15 -1 19 6 4 7 22 13 39 15 19 1 38 11 46 23 22 30 -4 34 -32 5z"/>
<path d="M6310 1931 c-53 -28 -89 -42 -101 -39 -8 1 -29 -7 -46 -20 -18 -13 -41 -25 -50 -27 -10 -1 -43 -14 -73 -28 -30 -14 -76 -27 -102 -30 -44 -5 -97 -32 -98 -49 0 -9 45 8 73 27 12 8 27 15 34 15 17 0 17 -37 1 -43 -10 -3 -10 -9 -2 -23 12 -19 41 -20 59 -2 7 6 5 8 -4 6 -25 -6 -23 21 4 38 30 20 44 11 27 -16 -16 -27 -17 -26 23 -26 38 0 42 5 23 24 -10 10 -10 15 2 22 35 22 65 -1 34 -25 -11 -8 -14 -15 -8 -15 6 0 25 13 42 30 31 30 62 32 62 4 0 -13 10 -17 28 -11 4 1 6 5 5 8 -1 4 7 15 18 25 15 13 22 15 31 6 8 -8 8 -12 1 -12 -6 0 -13 -8 -15 -18 -4 -12 1 -18 13 -18 11 0 19 6 19 14 0 8 5 10 13 6 9 -6 9 -4 -1 8 -10 13 -8 18 14 33 25 16 27 16 51 -6 15 -15 22 -18 18 -8 -7 20 20 44 37 33 7 -5 23 -7 34 -6 29 4 53 -22 47 -50 -5 -23 -4 -23 19 3 32 34 58 44 58 21 0 -10 -7 -27 -15 -38 -24 -32 -17 -37 10 -6 14 17 25 35 25 41 0 5 10 15 21 22 l21 11 -20 11 c-155 88 -182 100 -237 108 -71 10 -76 10 -95 0z m230 -86 c0 -9 -6 -12 -15 -9 -8 4 -12 10 -9 15 8 14 24 10 24 -6z"/>
<path d="M3690 1844 c0 -104 32 -196 108 -304 44 -63 314 -340 332 -340 5 0 35 -22 67 -48 69 -57 89 -67 97 -45 4 9 13 13 22 9 8 -3 24 -1 35 4 15 9 19 7 19 -7 1 -24 41 -68 68 -75 12 -4 26 0 33 8 14 17 33 8 25 -13 -9 -24 23 -63 53 -63 14 0 33 -4 41 -10 9 -6 17 -5 22 3 5 8 8 6 8 -7 0 -18 1 -18 20 -1 19 17 20 17 20 0 0 -15 3 -16 12 -7 14 14 7 22 -19 26 -13 3 -18 11 -17 34 1 23 -3 32 -18 36 -16 4 -19 11 -16 30 4 19 0 27 -13 31 -22 7 -36 45 -20 55 7 4 2 11 -14 18 -33 15 -55 4 -31 -14 21 -15 18 -48 -4 -51 -26 -5 -39 12 -42 53 -3 37 -5 41 -33 42 -53 3 -123 18 -139 31 -8 6 -25 9 -38 6 -16 -4 -29 -1 -38 9 -7 9 -30 19 -51 22 -21 4 -44 13 -50 20 -6 8 -19 14 -28 14 -10 0 -26 7 -37 15 -10 8 -26 15 -35 15 -22 0 -194 174 -219 221 -7 13 -16 26 -20 29 -4 3 -20 32 -35 65 -24 50 -29 74 -31 143 -1 63 -5 88 -18 100 -15 15 -16 11 -16 -54z m576 -625 c8 -14 -11 -33 -25 -25 -11 7 -4 36 9 36 5 0 12 -5 16 -11z m94 -34 c21 -25 -2 -42 -36 -26 -21 9 -24 14 -14 26 16 19 34 19 50 0z m84 -11 c17 -7 22 -34 6 -34 -18 0 -11 -18 10 -25 19 -6 28 -39 13 -48 -5 -3 -18 -1 -31 4 -17 7 -21 14 -17 32 5 18 1 26 -19 35 -51 23 -16 57 38 36z m120 -88 c18 -6 18 -8 3 -23 -14 -14 -21 -15 -43 -4 -26 11 -26 12 -8 32 9 11 20 16 23 11 3 -5 15 -12 25 -16z m27 -57 c16 -8 18 -13 8 -25 -14 -18 -33 -18 -48 -1 -8 10 -7 17 1 25 15 15 15 15 39 1z"/>
<path d="M8023 1837 c-22 -12 -22 -13 -3 -25 17 -11 20 -10 20 7 0 11 6 22 13 24 6 3 8 6 2 6 -5 0 -20 -5 -32 -12z"/>
<path d="M6660 1783 c0 -10 -9 -37 -20 -60 -24 -54 -12 -57 14 -3 10 21 25 41 32 44 17 7 7 36 -12 36 -8 0 -14 -8 -14 -17z"/>
<path d="M6920 1797 c0 -2 19 -17 43 -32 23 -16 37 -22 30 -14 -12 15 -73 53 -73 46z"/>
<path d="M6807 1773 c14 -33 37 -59 71 -78 17 -11 32 -23 32 -27 0 -4 6 -8 14 -8 7 0 26 -6 41 -14 15 -8 33 -12 40 -10 6 3 18 -2 25 -11 7 -8 18 -15 25 -15 7 0 18 -7 25 -15 7 -8 16 -15 21 -15 29 0 -65 61 -156 101 -32 14 -35 16 -103 75 -29 25 -40 30 -35 17z"/>
<path d="M3764 1726 c3 -22 10 -44 16 -50 16 -16 12 28 -6 60 l-16 29 6 -39z"/>
<path d="M6714 1744 c-4 -10 -13 -34 -21 -53 -16 -42 -9 -55 9 -15 6 16 19 37 27 47 11 13 12 20 3 29 -8 8 -13 7 -18 -8z"/>
<path d="M5786 1725 c-11 -8 -29 -15 -41 -15 -11 0 -31 -7 -43 -16 -48 -33 -195 -103 -205 -97 -6 3 -7 1 -4 -4 4 -6 -9 -18 -28 -27 -42 -20 -85 -58 -85 -76 0 -7 15 -1 35 14 20 15 54 34 78 42 23 8 89 44 147 79 58 36 124 74 148 85 23 11 42 22 42 25 0 10 -25 4 -44 -10z"/>
<path d="M6317 1673 c-12 -12 -7 -22 8 -17 8 4 15 10 15 15 0 11 -14 12 -23 2z"/>
<path d="M7170 1661 c14 -11 30 -21 35 -21 11 0 -7 14 -40 31 -13 7 -12 3 5 -10z"/>
<path d="M5191 1628 c-10 -30 -9 -31 4 -14 8 11 15 26 15 33 0 22 -8 14 -19 -19z"/>
<path d="M5750 1635 c-7 -8 -18 -15 -26 -15 -7 0 -16 -4 -19 -10 -4 -6 1 -7 12 -3 24 9 68 43 56 43 -6 0 -16 -7 -23 -15z"/>
<path d="M3860 1565 c0 -16 56 -105 66 -105 9 0 9 8 -3 33 -14 27 -63 84 -63 72z"/>
<path d="M6990 1561 c0 -29 348 -211 403 -211 29 0 28 19 0 26 -89 19 -184 63 -314 145 -83 52 -89 54 -89 40z"/>
<path d="M7215 1516 c31 -26 45 -32 45 -18 0 5 -12 15 -27 23 -46 23 -49 22 -18 -5z"/>
<path d="M7955 1517 c-11 -6 -26 -13 -33 -16 -7 -3 -22 -21 -34 -39 -19 -30 -19 -32 -2 -25 11 3 33 18 50 32 17 14 39 31 49 37 26 15 -2 25 -30 11z"/>
<path d="M7834 1495 c-10 -8 -14 -14 -9 -14 6 0 19 6 29 14 11 8 15 15 10 15 -6 0 -19 -7 -30 -15z"/>
<path d="M3961 1472 c-2 -33 26 -92 43 -92 23 0 20 13 -8 39 -14 13 -27 35 -29 50 -4 23 -4 23 -6 3z"/>
<path d="M5106 1458 c-9 -12 -16 -27 -16 -33 0 -5 -16 -32 -35 -59 -19 -27 -35 -60 -35 -74 0 -33 23 -23 31 14 3 16 22 60 43 98 36 67 44 99 12 54z"/>
<path d="M7777 1473 c-4 -3 -21 -8 -39 -10 -17 -2 -36 -8 -43 -13 -6 -5 -37 -12 -68 -16 -31 -4 -54 -11 -51 -16 11 -17 143 8 202 37 17 9 32 18 32 21 0 7 -26 5 -33 -3z"/>
<path d="M7830 1430 c-8 -5 -12 -11 -9 -14 3 -3 14 1 25 9 21 16 8 20 -16 5z"/>
<path d="M7503 1403 c15 -2 37 -2 50 0 12 2 0 4 -28 4 -27 0 -38 -2 -22 -4z"/>
<path d="M7725 1390 c-13 -5 -14 -9 -5 -9 8 0 24 4 35 9 13 5 14 9 5 9 -8 0 -24 -4 -35 -9z"/>
<path d="M4057 1371 c-3 -12 1 -22 9 -25 9 -3 14 2 14 14 0 26 -17 34 -23 11z"/>
<path d="M4908 1328 c-38 -93 -39 -98 -22 -98 11 0 13 6 9 19 -3 11 -1 22 5 26 5 3 10 13 10 22 0 8 7 30 16 49 9 19 14 37 12 39 -3 3 -16 -23 -30 -57z"/>
<path d="M4310 1316 c0 -8 5 -18 10 -21 6 -3 10 1 10 9 0 8 -4 18 -10 21 -5 3 -10 -1 -10 -9z"/>
<path d="M4511 1271 c-1 -24 2 -32 9 -25 7 7 7 19 1 35 -9 23 -10 22 -10 -10z"/>
<path d="M4410 1262 c0 -18 4 -32 9 -32 16 0 19 26 5 45 -13 17 -14 17 -14 -13z"/>
<path d="M5150 1275 c-16 -19 0 -19 26 0 16 12 16 14 3 15 -9 0 -22 -7 -29 -15z"/>
<path d="M4990 1216 c0 -14 -4 -26 -9 -26 -4 0 -6 -11 -4 -25 4 -20 -1 -27 -28 -39 l-34 -14 28 -1 c26 -1 28 -4 25 -33 -3 -34 8 -44 32 -28 12 8 13 12 2 19 -24 15 -9 45 26 52 47 10 52 19 9 19 -20 0 -38 3 -40 8 -10 16 14 53 45 66 33 14 33 14 6 15 -14 1 -33 4 -42 7 -12 5 -16 0 -16 -20z"/>
<path d="M4606 1184 c-3 -8 1 -17 9 -20 9 -4 15 -19 15 -39 0 -21 6 -35 16 -39 11 -4 15 -14 12 -30 -4 -18 1 -27 17 -34 17 -8 21 -17 18 -36 -4 -21 -1 -26 14 -26 16 0 19 7 19 35 -1 19 -4 35 -8 35 -14 0 -39 33 -34 46 3 8 -6 25 -20 39 -24 24 -25 27 -10 44 16 17 16 19 -1 26 -31 14 -41 13 -47 -1z"/>
<path d="M4722 1184 c-7 -8 -8 -14 -3 -14 15 0 24 -40 12 -54 -9 -10 -8 -15 5 -20 12 -5 15 -15 12 -37 -4 -24 -1 -33 12 -36 10 -3 20 -17 23 -33 3 -15 13 -30 21 -33 23 -9 8 64 -17 84 -14 11 -18 23 -14 39 3 13 0 28 -9 37 -8 8 -14 27 -14 43 0 34 -10 43 -28 24z"/>
<path d="M4772 1188 c-10 -4 -1 -7 25 -7 48 -1 69 -23 51 -55 -14 -25 5 -44 27 -26 11 9 13 16 5 24 -15 15 -12 43 5 50 8 3 15 10 15 15 0 10 -101 10 -128 -1z"/>
<path d="M4860 1071 c0 -5 -3 -16 -6 -24 -6 -17 25 -32 39 -18 5 5 1 17 -12 30 -12 12 -21 17 -21 12z"/>
<path d="M4980 1004 c0 -17 6 -21 27 -21 23 0 24 1 7 10 -10 6 -22 15 -26 21 -5 6 -8 2 -8 -10z"/>
<path d="M4880 984 c0 -12 7 -24 15 -28 20 -7 19 -25 -2 -48 -15 -17 -15 -18 1 -18 9 0 19 6 22 14 3 8 13 12 22 10 15 -5 15 -4 -1 9 -10 8 -15 21 -11 31 4 10 1 16 -9 16 -9 0 -21 8 -26 18 -9 15 -10 15 -11 -4z"/>
<path d="M4726 945 c-24 -37 -20 -52 19 -66 19 -7 35 -16 35 -21 0 -4 15 7 34 25 18 18 31 38 28 46 -4 10 -7 10 -14 -3 -5 -9 -18 -16 -29 -16 -12 0 -17 -4 -14 -11 5 -7 -3 -9 -21 -7 -21 2 -30 9 -32 26 -2 15 2 22 12 22 17 0 22 15 7 24 -5 3 -16 -5 -25 -19z"/>
<path d="M5023 907 c4 -14 26 -16 30 -3 1 5 -6 10 -16 12 -10 1 -16 -3 -14 -9z"/>
<path d="M4855 881 c3 -6 -2 -14 -12 -20 -16 -8 -15 -11 7 -30 25 -20 107 -31 95 -12 -3 6 3 15 14 20 13 7 17 17 14 31 -7 26 -20 26 -28 0 -3 -11 -11 -20 -16 -20 -5 0 -8 -6 -6 -12 1 -8 -7 -12 -23 -10 -35 5 -44 17 -26 35 14 14 14 16 0 21 -22 8 -26 8 -19 -3z"/>
<path d="M5040 872 c0 -6 -14 -15 -31 -21 -17 -6 -28 -15 -24 -21 4 -6 1 -18 -6 -26 -9 -11 -9 -18 -1 -26 7 -7 12 -8 12 -2 0 5 4 3 8 -3 9 -15 72 -25 72 -12 0 4 -16 11 -35 15 -42 8 -55 23 -26 31 12 3 21 12 21 19 0 8 9 14 21 14 14 0 19 5 17 17 -3 18 -28 31 -28 15z"/>
<path d="M5089 848 c-3 -26 3 -43 17 -55 12 -9 13 -16 5 -32 -15 -26 -14 -28 9 -34 11 -3 20 -1 20 4 0 5 5 9 11 9 5 0 7 -5 4 -10 -6 -10 31 -49 48 -50 14 0 7 33 -10 46 -17 13 -17 14 0 8 9 -3 17 -1 17 5 0 6 -11 11 -25 11 -22 0 -24 3 -15 25 9 23 7 25 -19 25 -32 0 -50 16 -46 43 2 9 -1 17 -6 17 -5 0 -10 -6 -10 -12z"/>
<path d="M6225 820 c-10 -11 -15 -20 -11 -20 4 0 16 9 28 20 12 11 17 20 11 20 -5 0 -18 -9 -28 -20z"/>
<path d="M5315 710 c-3 -5 1 -10 9 -10 8 0 18 5 21 10 3 6 -1 10 -9 10 -8 0 -18 -4 -21 -10z"/>
<path d="M5242 698 c6 -18 28 -21 28 -4 0 9 -7 16 -16 16 -9 0 -14 -5 -12 -12z"/>
<path d="M5342 648 c2 -6 10 -14 16 -16 7 -2 10 2 6 12 -7 18 -28 22 -22 4z"/>
<path d="M5653 605 c-3 -9 -3 -19 1 -22 3 -4 6 1 6 11 0 9 5 14 10 11 6 -3 10 -1 10 4 0 17 -20 13 -27 -4z"/>
</g>
<g id="layer103" fill="#3a443a" stroke="none">
<path d="M4830 5383 c0 -6 -10 -19 -22 -27 -12 -9 -19 -18 -15 -22 6 -7 75 45 76 58 1 4 -8 6 -19 5 -11 -1 -20 -7 -20 -14z"/>
<path d="M5954 5385 c3 -9 6 -19 6 -21 0 -2 10 -5 23 -5 16 -1 18 -2 5 -6 -27 -7 -21 -23 8 -23 20 0 25 4 20 16 -3 9 -6 17 -6 20 0 2 -14 11 -31 20 -30 15 -31 15 -25 -1z"/>
<path d="M4720 5363 c-43 -13 -44 -13 -21 -30 15 -10 26 -12 33 -5 14 14 6 40 -12 35z"/>
<path d="M4550 5289 c-30 -6 -53 -18 -70 -37 -14 -16 -42 -35 -63 -42 -23 -7 -43 -22 -49 -35 -6 -13 -21 -26 -34 -29 -16 -4 -24 -14 -24 -28 0 -20 -1 -20 -13 -5 -11 16 -13 15 -24 -12 -9 -25 -8 -29 4 -24 8 3 21 -3 29 -13 13 -16 15 -16 10 -2 -3 10 6 27 21 43 21 21 23 25 7 20 -18 -6 -18 -6 1 6 11 7 31 23 45 36 14 13 29 23 34 23 5 0 -4 -10 -19 -22 l-28 -22 23 -8 c31 -12 64 16 50 43 -9 15 -5 19 26 28 21 6 41 8 46 5 5 -3 7 -2 6 3 -2 4 10 21 26 36 25 25 32 27 51 17 33 -17 52 -9 31 13 -19 19 -21 19 -86 6z"/>
<path d="M4303 5248 c-22 -29 -24 -41 -3 -20 12 13 20 25 17 28 -2 2 -9 -1 -14 -8z"/>
<path d="M6202 5238 c2 -6 15 -18 29 -26 21 -12 22 -12 7 1 -10 8 -18 19 -18 26 0 6 -5 11 -11 11 -6 0 -9 -5 -7 -12z"/>
<path d="M4250 5195 c-7 -8 -15 -13 -19 -10 -4 2 -16 -10 -26 -27 l-18 -32 41 34 c23 18 42 37 42 42 0 12 -6 10 -20 -7z"/>
<path d="M6277 5143 c8 -21 19 -40 23 -43 15 -10 70 -104 70 -121 0 -9 7 -19 15 -23 20 -7 19 -46 -1 -46 -13 0 -14 -3 -5 -13 6 -8 7 -18 3 -22 -4 -5 -1 -5 6 -1 19 11 40 -11 36 -39 -2 -21 2 -25 23 -25 18 0 24 4 19 15 -3 9 0 15 9 15 8 0 15 4 15 9 0 15 -31 42 -41 36 -5 -4 -9 0 -9 8 0 15 -86 188 -98 197 -8 6 -29 39 -39 60 -7 16 -23 30 -35 30 -4 0 0 -17 9 -37z"/>
<path d="M4147 5094 c-15 -13 -27 -28 -27 -35 0 -6 -8 -18 -17 -25 -17 -13 -17 -14 2 -8 23 8 72 51 85 75 13 24 -12 20 -43 -7z"/>
<path d="M4235 5040 c-10 -11 -22 -17 -26 -14 -5 3 -9 0 -9 -5 0 -6 -6 -11 -14 -11 -7 0 -20 -7 -27 -16 -11 -14 -10 -16 11 -13 14 2 35 -3 47 -9 19 -11 22 -10 17 3 -3 8 4 30 16 50 23 38 14 47 -15 15z"/>
<path d="M4134 4937 c-26 -29 -28 -38 -13 -48 15 -9 39 7 39 26 0 8 5 15 11 17 7 2 6 8 -3 16 -12 9 -19 7 -34 -11z"/>
<path d="M4110 4865 c0 -9 6 -12 15 -9 8 4 12 10 9 15 -8 14 -24 10 -24 -6z"/>
<path d="M6235 4853 c-16 -12 -16 -14 -3 -10 10 3 20 2 24 -4 4 -6 11 -6 20 2 15 12 10 29 -9 29 -7 0 -21 -8 -32 -17z"/>
<path d="M4032 4791 c-8 -23 -7 -32 3 -41 26 -22 56 29 34 56 -17 21 -26 17 -37 -15z"/>
<path d="M3983 4732 c-22 -11 -33 -24 -33 -39 0 -25 15 -31 23 -10 3 6 4 2 4 -10 -1 -12 -5 -21 -10 -20 -16 3 -18 -20 -3 -26 9 -4 15 -3 14 1 -1 4 4 17 11 30 9 17 10 27 1 37 -8 10 -6 18 11 34 27 25 25 25 -18 3z"/>
<path d="M4042 4690 c-17 -27 -15 -30 11 -29 12 0 16 3 10 6 -7 2 -13 9 -13 14 0 6 5 7 10 4 6 -3 10 1 10 9 0 22 -13 20 -28 -4z"/>
<path d="M4047 4644 c-3 -3 -3 -13 0 -22 4 -10 2 -13 -5 -8 -7 4 -12 2 -12 -3 0 -6 10 -11 23 -12 21 -1 21 -1 -3 -8 -23 -6 -23 -8 -6 -14 26 -10 36 9 24 44 -11 31 -12 32 -21 23z"/>
<path d="M6789 4615 c33 -38 75 -68 84 -59 2 2 14 -7 27 -21 13 -14 33 -25 44 -25 20 0 19 1 -4 24 -14 13 -31 21 -39 18 -8 -3 -12 -1 -8 5 4 6 0 13 -8 17 -8 3 -15 0 -15 -7 0 -7 -9 3 -20 21 -11 17 -27 32 -37 32 -9 0 -26 8 -37 18 -11 9 -5 -1 13 -23z"/>
<path d="M3892 4581 c-10 -6 -11 -13 -1 -34 15 -34 27 -34 35 -3 9 38 -6 55 -34 37z"/>
<path d="M4056 4522 c-7 -12 9 -75 21 -79 11 -4 22 54 15 76 -4 13 -28 15 -36 3z"/>
<path d="M8210 4491 c0 -5 6 -14 14 -20 10 -9 15 -8 19 3 3 8 3 17 0 20 -9 9 -33 7 -33 -3z"/>
<path d="M3910 4450 c0 -19 3 -21 12 -12 9 9 9 15 0 24 -9 9 -12 7 -12 -12z"/>
<path d="M8023 4443 c-18 -7 -16 -23 2 -23 8 0 15 7 15 15 0 8 -1 15 -2 14 -2 0 -9 -3 -15 -6z"/>
<path d="M8304 4443 c9 -16 139 -103 154 -103 7 0 12 -4 12 -10 0 -5 6 -10 14 -10 8 0 16 -7 19 -14 7 -18 67 -51 67 -37 0 22 -13 41 -30 41 -10 0 -23 7 -30 15 -7 8 -19 15 -26 15 -8 0 -14 6 -14 14 0 18 -8 23 -41 30 -41 7 -59 17 -59 32 0 8 -10 14 -23 14 -13 0 -29 6 -36 13 -10 9 -12 9 -7 0z"/>
<path d="M3845 4370 c-3 -5 3 -10 14 -10 12 0 21 5 21 10 0 6 -6 10 -14 10 -8 0 -18 -4 -21 -10z"/>
<path d="M8280 4365 c0 -17 2 -18 24 -9 18 7 12 24 -10 24 -8 0 -14 -7 -14 -15z"/>
<path d="M3858 4335 c-3 -11 -9 -29 -13 -40 -6 -17 -5 -17 9 3 10 12 16 30 14 40 -3 15 -5 14 -10 -3z"/>
<path d="M8610 4250 c-12 -7 -3 -21 43 -66 32 -31 60 -55 63 -52 3 3 2 18 -2 32 -5 20 -12 26 -28 24 -15 -2 -25 6 -38 30 -21 43 -21 43 -38 32z"/>
<path d="M8472 4233 c-8 -14 -9 -24 -2 -28 12 -7 24 18 18 37 -3 8 -9 5 -16 -9z"/>
<path d="M5700 4122 c0 -15 9 -22 33 -27 148 -30 344 -133 433 -227 53 -55 116 -143 137 -188 27 -61 59 -154 67 -193 8 -41 4 -42 -65 -12 -182 81 -402 16 -516 -153 -41 -60 -58 -110 -77 -220 -13 -78 -14 -105 -3 -180 29 -206 117 -349 271 -439 127 -74 306 -85 437 -27 17 8 34 14 37 14 16 0 116 79 159 124 57 61 117 176 148 283 47 160 22 477 -49 619 -5 11 -19 42 -32 69 -46 97 -114 191 -193 268 -44 42 -83 77 -87 77 -4 0 -24 13 -44 29 -34 27 -148 86 -241 125 -65 27 -234 64 -327 71 -84 7 -88 6 -88 -13z m656 -769 c41 -17 42 -18 48 -81 9 -86 6 -338 -4 -393 -5 -24 -14 -73 -20 -109 -34 -183 -104 -278 -195 -264 -49 8 -67 23 -97 82 -22 44 -23 58 -23 247 0 225 13 334 50 409 32 65 43 79 85 105 43 26 100 27 156 4z"/>
<path d="M4174 4091 c9 -16 12 -31 9 -35 -4 -3 -1 -6 5 -6 7 0 12 -11 12 -25 0 -27 51 -138 77 -167 34 -39 30 -3 -7 69 -22 41 -40 82 -40 89 0 8 -4 14 -10 14 -5 0 -10 5 -10 11 0 18 -32 79 -41 79 -5 0 -3 -13 5 -29z"/>
<path d="M8747 4114 c-3 -4 -1 -16 5 -27 9 -18 11 -19 20 -4 13 25 -6 49 -25 31z"/>
<path d="M8660 4095 c0 -8 7 -15 16 -15 14 0 14 3 4 15 -7 8 -14 15 -16 15 -2 0 -4 -7 -4 -15z"/>
<path d="M8810 4037 c0 -7 12 -25 26 -41 24 -25 28 -26 36 -12 13 24 3 46 -22 46 -11 0 -20 5 -20 10 0 6 -4 10 -10 10 -5 0 -10 -6 -10 -13z"/>
<path d="M4340 3768 c0 -7 9 -24 20 -38 11 -14 20 -30 20 -36 0 -6 9 -19 20 -29 29 -26 25 -1 -5 39 -14 18 -25 43 -25 54 0 13 -6 22 -15 22 -8 0 -15 -6 -15 -12z"/>
<path d="M4480 3441 c0 -6 4 -11 9 -11 18 0 22 -40 8 -69 -14 -27 -13 -28 14 -29 32 -1 46 26 30 56 -6 11 -7 23 -3 27 4 5 1 5 -5 1 -8 -5 -13 -1 -13 10 0 10 -3 14 -7 11 -3 -4 -12 -2 -20 4 -9 9 -13 8 -13 0z"/>
<path d="M4539 3315 c-6 -35 -5 -64 3 -59 5 3 7 9 4 12 -3 3 -2 10 4 16 5 7 5 17 0 26 -6 8 -10 11 -11 5z"/>
<path d="M8637 3163 c-4 -3 -7 -12 -7 -20 0 -11 4 -11 20 -1 11 7 20 16 20 20 0 10 -24 10 -33 1z"/>
<path d="M4543 3136 c-13 -15 -7 -26 14 -26 7 0 13 9 13 20 0 23 -10 25 -27 6z"/>
<path d="M8602 3138 c-7 -7 -12 -8 -12 -4 0 5 -7 3 -15 -4 -8 -7 -15 -16 -15 -21 0 -5 7 -9 15 -9 8 0 15 -4 15 -10 0 -15 26 -12 40 6 8 8 9 14 4 13 -27 -5 -35 1 -24 21 12 23 9 25 -8 8z"/>
<path d="M7966 3055 c-3 -9 0 -15 9 -15 8 0 15 7 15 15 0 8 -4 15 -9 15 -5 0 -11 -7 -15 -15z"/>
<path d="M8600 3036 c0 -17 14 -29 23 -20 8 8 -3 34 -14 34 -5 0 -9 -6 -9 -14z"/>
<path d="M8100 3013 c0 -17 19 -37 27 -29 4 5 2 11 -5 13 -6 3 -10 9 -6 14 3 5 0 9 -5 9 -6 0 -11 -3 -11 -7z"/>
<path d="M7996 2975 c-11 -8 -18 -15 -15 -16 40 -7 69 -2 67 11 -4 20 -29 23 -52 5z"/>
<path d="M7921 2948 c-1 -16 3 -28 8 -28 18 0 41 12 41 22 0 5 -4 6 -10 3 -5 -3 -10 -1 -10 5 0 6 -4 9 -9 6 -5 -4 -12 0 -14 6 -3 7 -6 1 -6 -14z"/>
<path d="M4597 2879 c-8 -19 -20 -61 -27 -94 -6 -33 -20 -75 -31 -93 -19 -34 -26 -78 -10 -68 5 3 16 21 25 40 15 32 19 34 53 29 24 -4 34 -3 30 4 -7 11 20 28 37 24 5 -1 6 5 2 14 -3 9 -6 28 -6 41 0 27 -28 34 -35 9 -3 -8 -8 -23 -12 -32 -3 -10 -5 -22 -4 -26 2 -13 -30 -20 -40 -10 -12 12 5 47 36 75 11 9 16 17 10 18 -13 0 -16 50 -3 50 5 0 6 -4 3 -10 -3 -5 -2 -10 4 -10 6 0 8 -7 5 -15 -4 -8 -1 -15 5 -15 15 0 14 11 -8 60 l-19 42 -15 -33z"/>
<path d="M4596 2642 c-2 -4 -1 -14 3 -20 10 -16 41 -5 41 14 0 15 -35 20 -44 6z"/>
<path d="M4482 2591 c-8 -4 -14 -14 -15 -22 -2 -8 -6 -20 -10 -26 -5 -7 -4 -13 2 -13 11 0 45 59 39 65 -2 2 -9 0 -16 -4z"/>
<path d="M7906 2504 c-3 -9 -1 -12 4 -9 6 3 10 -3 10 -13 0 -23 36 -36 44 -16 3 8 1 14 -4 14 -6 0 -19 9 -29 19 -16 16 -20 17 -25 5z"/>
<path d="M3825 2310 c3 -11 2 -20 -3 -20 -18 0 -51 -37 -57 -66 l-7 -29 17 23 c9 12 32 39 50 59 34 37 37 53 9 53 -11 0 -13 -6 -9 -20z"/>
<path d="M7988 2282 c-13 -5 -15 -11 -8 -22 9 -13 11 -13 20 0 9 14 13 31 8 29 -2 0 -11 -3 -20 -7z"/>
<path d="M7990 2165 c0 -9 5 -15 11 -13 6 2 11 8 11 13 0 5 -5 11 -11 13 -6 2 -11 -4 -11 -13z"/>
<path d="M6684 2030 c-5 -5 -22 -11 -37 -12 -15 -1 -27 -5 -27 -8 0 -3 -8 -7 -17 -8 -10 -1 -27 -4 -38 -6 -11 -2 -26 -5 -32 -5 -15 -1 -18 -31 -3 -31 6 0 10 6 10 13 0 8 3 7 9 -3 12 -18 5 -31 -14 -23 -8 3 -15 1 -15 -3 0 -5 22 -19 48 -31 26 -12 81 -44 121 -72 41 -28 77 -48 80 -45 3 3 -1 9 -8 13 -9 6 -10 10 -2 16 16 9 -21 36 -81 61 -27 10 -48 22 -48 26 0 4 -16 10 -35 14 -19 3 -35 9 -35 13 0 11 15 26 30 30 8 2 24 6 34 9 13 3 17 1 12 -7 -4 -6 -13 -8 -19 -4 -7 4 -7 0 1 -10 8 -9 39 -21 70 -27 31 -7 62 -19 69 -27 6 -8 16 -12 22 -8 6 3 11 -1 11 -9 0 -9 7 -16 15 -16 8 0 15 5 15 11 0 5 -4 7 -10 4 -5 -3 -10 -1 -10 5 0 6 -20 20 -45 31 -24 11 -47 24 -50 29 -3 6 -17 10 -31 10 -21 0 -25 4 -22 22 2 13 11 24 22 26 10 2 16 0 13 -5 -3 -5 5 -9 19 -9 17 0 23 4 19 14 -3 7 -5 18 -5 23 0 12 -23 12 -36 -1z"/>
<path d="M6324 1928 c-4 -6 -3 -8 3 -5 6 4 13 0 16 -7 5 -12 0 -13 -25 -4 -25 9 -36 8 -59 -6 -16 -10 -41 -18 -57 -20 -18 -1 -26 -7 -24 -18 1 -9 -5 -19 -14 -22 -12 -5 -15 -2 -10 11 5 13 0 11 -18 -6 -15 -14 -26 -21 -26 -17 0 5 -8 2 -17 -5 -13 -11 -15 -11 -9 -1 7 11 4 11 -12 1 -20 -13 -23 -32 -7 -46 4 -5 5 -2 0 6 -6 11 -4 13 8 8 9 -3 19 -2 22 3 4 6 16 10 29 10 12 0 43 13 69 30 26 16 51 29 55 28 4 -1 22 6 40 16 19 9 40 15 47 12 15 -5 49 27 38 37 -10 11 -41 8 -49 -5z"/>
<path d="M6550 1863 c1 -23 48 -53 82 -53 26 0 20 8 -10 13 -12 2 -30 13 -40 25 -20 22 -32 28 -32 15z"/>
<path d="M5985 1790 c-4 -6 -11 -8 -16 -5 -5 3 -6 -1 -3 -9 8 -20 6 -20 34 4 18 15 19 20 7 20 -9 0 -19 -5 -22 -10z"/>
<path d="M5860 1755 c-10 -12 -10 -15 3 -15 8 0 20 7 27 15 10 12 10 15 -3 15 -8 0 -20 -7 -27 -15z"/>
<path d="M6714 1746 c-8 -22 -2 -27 16 -16 12 7 12 12 3 21 -10 10 -14 9 -19 -5z"/>
<path d="M8014 1752 c-16 -9 -21 -43 -10 -61 7 -10 6 -12 -4 -6 -10 6 -12 4 -7 -7 3 -9 -1 -25 -9 -37 -12 -17 -13 -21 -1 -21 27 0 50 26 44 50 -4 16 -1 23 13 27 17 4 18 8 8 27 -7 11 -11 24 -10 29 3 9 -10 9 -24 -1z"/>
<path d="M5710 1694 c-6 -6 -25 -18 -43 -25 -18 -7 -34 -16 -37 -19 -3 -3 -40 -23 -82 -45 -43 -22 -78 -43 -78 -47 0 -5 -9 -8 -20 -8 -11 0 -23 -7 -26 -15 -3 -8 -14 -17 -25 -20 -10 -4 -19 -10 -19 -15 0 -12 30 0 53 20 10 10 35 22 56 28 21 7 56 24 77 38 21 15 70 44 109 64 38 21 71 42 72 47 5 14 -26 12 -37 -3z"/>
<path d="M7907 1485 c-10 -14 -14 -25 -9 -25 12 0 49 29 37 30 -5 0 -3 5 5 10 13 9 13 10 0 10 -8 -1 -23 -12 -33 -25z"/>
<path d="M5028 1306 c-3 -14 -1 -26 4 -26 14 0 22 30 11 41 -7 7 -12 2 -15 -15z"/>
<path d="M4062 1265 c6 -14 16 -25 23 -25 6 0 22 -11 35 -25 13 -14 29 -25 35 -25 7 0 25 -12 41 -27 34 -33 70 -53 93 -53 22 0 -43 56 -146 125 -45 30 -84 55 -87 55 -3 0 0 -11 6 -25z"/>
<path d="M4990 1215 c0 -8 5 -15 10 -15 6 0 10 5 10 11 0 6 9 8 21 4 15 -5 19 -4 15 4 -11 17 -56 14 -56 -4z"/>
<path d="M4435 1199 c-4 -5 1 -16 11 -24 23 -17 31 -1 10 20 -10 10 -17 12 -21 4z"/>
<path d="M4616 1175 c4 -8 10 -15 15 -15 5 0 9 7 9 15 0 8 -7 15 -15 15 -9 0 -12 -6 -9 -15z"/>
<path d="M4850 1170 c6 -11 13 -20 15 -20 3 0 5 9 5 20 0 11 -7 20 -15 20 -13 0 -14 -4 -5 -20z"/>
</g>
<g id="layer104" fill="#544c45" stroke="none">
<path d="M4830 5388 c0 -4 9 -8 20 -8 11 0 20 4 20 9 0 6 -9 9 -20 8 -11 -1 -20 -5 -20 -9z"/>
<path d="M5950 5390 c0 -9 31 -30 44 -30 16 0 3 18 -19 28 -14 7 -25 8 -25 2z"/>
<path d="M4707 5357 l-28 -9 21 -15 c24 -17 44 -6 38 19 -2 12 -9 13 -31 5z"/>
<path d="M4602 5280 c11 -17 48 -29 48 -16 0 11 -33 36 -46 36 -12 0 -12 -3 -2 -20z"/>
<path d="M4513 5280 c-12 -5 -29 -20 -38 -33 -8 -13 -33 -29 -56 -36 -26 -8 -44 -21 -51 -37 -6 -13 -17 -24 -25 -24 -7 0 -13 -4 -13 -10 0 -16 9 -12 49 19 20 16 59 36 86 46 52 17 80 37 96 67 8 14 6 18 -8 17 -10 0 -28 -4 -40 -9z"/>
<path d="M6273 5153 c7 -16 32 -57 55 -92 23 -35 42 -72 42 -81 0 -10 7 -20 15 -24 8 -3 15 -15 15 -26 0 -11 7 -20 15 -20 8 0 15 3 15 7 0 15 -84 173 -91 173 -5 0 -9 6 -9 13 0 8 -9 22 -20 32 -11 10 -17 21 -15 25 3 4 -2 11 -11 14 -24 9 -24 8 -11 -21z"/>
<path d="M4273 5101 c-9 -25 -8 -28 8 -24 11 3 19 14 19 24 0 30 -15 30 -27 0z"/>
<path d="M4201 5023 c0 -7 -7 -13 -15 -13 -7 0 -19 -7 -26 -15 -10 -12 -9 -15 6 -15 29 0 46 16 41 36 -3 11 -5 13 -6 7z"/>
<path d="M4100 4985 c0 -8 5 -15 10 -15 6 0 10 7 10 15 0 8 -4 15 -10 15 -5 0 -10 -7 -10 -15z"/>
<path d="M6444 4877 c-8 -22 3 -37 27 -37 24 0 24 12 -1 35 -17 16 -20 16 -26 2z"/>
<path d="M6476 4811 c-17 -18 -17 -20 2 -30 11 -6 22 -8 25 -4 4 3 18 -2 31 -11 48 -31 50 -9 4 34 -39 35 -40 35 -62 11z"/>
<path d="M4031 4790 c-5 -17 -6 -28 -1 -25 4 3 10 0 12 -7 3 -8 9 -8 24 0 18 11 18 11 -3 12 -26 0 -27 3 -13 31 6 11 7 19 1 19 -5 0 -14 -14 -20 -30z"/>
<path d="M4340 4782 c0 -4 -14 -16 -31 -26 -17 -10 -28 -20 -25 -24 3 -3 1 -11 -5 -19 -9 -10 -8 -13 5 -13 9 0 16 7 16 15 0 8 5 15 10 15 6 0 19 9 30 20 22 22 26 40 10 40 -5 0 -10 -4 -10 -8z"/>
<path d="M3973 4726 c-14 -6 -23 -20 -23 -33 0 -33 14 -28 33 12 9 19 16 34 14 34 -1 -1 -12 -6 -24 -13z"/>
<path d="M4030 4670 c0 -5 10 -10 23 -10 18 0 19 2 7 10 -19 13 -30 13 -30 0z"/>
<path d="M4048 4644 c-4 -3 -4 -13 -1 -22 4 -10 2 -13 -5 -8 -7 4 -12 2 -12 -3 0 -6 9 -11 20 -11 11 0 20 6 20 13 0 17 -15 38 -22 31z"/>
<path d="M6796 4607 c31 -37 70 -57 60 -31 -3 8 -6 17 -6 20 0 2 -18 12 -40 23 l-40 19 26 -31z"/>
<path d="M3880 4572 c0 -4 7 -18 16 -31 14 -20 18 -21 25 -8 13 22 0 47 -22 47 -10 0 -19 -3 -19 -8z"/>
<path d="M6901 4551 c-16 -10 22 -44 44 -39 14 2 13 7 -8 24 -13 12 -30 19 -36 15z"/>
<path d="M8210 4491 c0 -5 7 -14 15 -21 13 -10 15 -9 15 9 0 12 -6 21 -15 21 -8 0 -15 -4 -15 -9z"/>
<path d="M8321 4426 c17 -17 126 -86 137 -86 6 0 12 -4 12 -10 0 -5 6 -10 14 -10 8 0 16 -7 19 -14 7 -18 67 -51 67 -37 0 20 -13 41 -25 41 -23 0 -74 34 -79 52 -2 10 -13 18 -25 18 -30 0 -71 21 -71 37 0 7 -11 13 -27 13 -14 0 -24 -2 -22 -4z"/>
<path d="M3850 4370 c0 -5 7 -10 15 -10 8 0 15 5 15 10 0 6 -7 10 -15 10 -8 0 -15 -4 -15 -10z"/>
<path d="M8600 4242 c0 -10 43 -52 53 -52 4 0 1 14 -8 30 -14 27 -45 42 -45 22z"/>
<path d="M8674 4179 c-7 -12 32 -57 41 -47 3 3 3 17 -1 32 -6 27 -27 35 -40 15z"/>
<path d="M5700 4122 c0 -15 9 -22 33 -27 74 -16 168 -50 252 -94 127 -65 254 -191 313 -311 23 -46 42 -91 42 -100 0 -9 4 -20 9 -25 8 -8 32 -115 27 -115 -1 0 -42 14 -91 31 -78 27 -99 31 -165 27 -222 -14 -380 -174 -409 -414 -26 -219 45 -432 183 -547 71 -60 98 -76 179 -103 78 -27 216 -33 278 -13 209 68 343 213 410 446 19 64 23 102 23 218 0 147 -14 239 -54 345 -12 30 -24 64 -27 74 -15 46 -79 157 -129 221 -169 221 -469 374 -787 400 -83 7 -87 6 -87 -13z m656 -768 c36 -14 42 -21 48 -52 9 -58 7 -366 -3 -419 -6 -26 -17 -88 -26 -136 -19 -98 -51 -170 -97 -213 -24 -24 -38 -29 -78 -29 -40 0 -55 5 -76 27 -47 47 -56 88 -61 279 -5 189 11 336 45 424 19 49 73 112 106 125 34 14 97 11 142 -6z"/>
<path d="M4180 4080 c11 -21 20 -49 20 -60 0 -23 54 -135 77 -162 38 -43 28 2 -24 105 -31 62 -61 122 -66 135 -6 12 -14 22 -19 22 -5 0 1 -18 12 -40z"/>
<path d="M8755 4100 c-3 -5 -3 -15 1 -21 6 -11 23 6 24 24 0 10 -18 9 -25 -3z"/>
<path d="M8810 4037 c0 -7 13 -26 29 -41 28 -27 29 -27 36 -7 8 26 -1 41 -26 41 -10 0 -19 5 -19 10 0 6 -4 10 -10 10 -5 0 -10 -6 -10 -13z"/>
<path d="M4340 3766 c0 -7 7 -19 15 -26 13 -11 15 -8 15 14 0 16 -5 26 -15 26 -8 0 -15 -6 -15 -14z"/>
<path d="M4377 3701 c7 -26 43 -60 43 -40 -1 14 -33 59 -43 59 -3 0 -3 -9 0 -19z"/>
<path d="M4430 3606 c0 -8 5 -18 10 -21 6 -3 10 3 10 14 0 12 -4 21 -10 21 -5 0 -10 -6 -10 -14z"/>
<path d="M8637 3164 c-4 -4 -4 -10 -1 -15 6 -10 34 0 34 12 0 10 -24 12 -33 3z"/>
<path d="M8572 3128 c-18 -18 -14 -28 8 -28 11 0 20 6 20 14 0 21 -15 27 -28 14z"/>
<path d="M7920 2938 c0 -10 4 -18 9 -18 18 0 41 12 41 22 0 5 -4 6 -10 3 -5 -3 -10 -2 -10 3 0 5 -7 9 -15 9 -8 0 -15 -9 -15 -19z"/>
<path d="M4598 2880 c-9 -19 -21 -62 -28 -95 -6 -33 -20 -75 -31 -93 -19 -34 -27 -84 -10 -67 21 23 50 86 45 99 -3 8 -1 17 5 21 6 3 11 15 11 25 0 10 5 20 11 22 6 2 12 17 13 33 1 17 4 35 7 40 4 6 3 19 -1 30 -6 17 -9 15 -22 -15z"/>
<path d="M4626 2851 c-4 -6 -3 -11 3 -11 6 0 8 -7 5 -15 -4 -8 -1 -15 5 -15 13 0 14 20 2 39 -6 9 -11 10 -15 2z"/>
<path d="M7880 2618 c0 -3 6 -18 14 -32 8 -17 15 -22 18 -14 3 7 -3 22 -13 32 -11 11 -19 17 -19 14z"/>
<path d="M4482 2591 c-8 -4 -14 -14 -15 -22 -2 -8 -6 -20 -10 -26 -5 -7 -4 -13 0 -13 10 0 47 59 41 65 -2 2 -9 0 -16 -4z"/>
<path d="M7196 2484 c-9 -22 3 -32 14 -14 12 19 12 30 1 30 -5 0 -12 -7 -15 -16z"/>
<path d="M7920 2480 c0 -13 7 -20 20 -20 11 0 20 4 20 10 0 5 -9 14 -20 20 -17 9 -20 8 -20 -10z"/>
<path d="M7942 2403 c-10 -4 -10 -8 -1 -19 13 -15 39 -19 39 -5 0 14 -24 29 -38 24z"/>
<path d="M3869 2179 c-23 -19 -23 -20 -2 -10 12 6 25 16 28 21 10 16 -1 12 -26 -11z"/>
<path d="M7990 2165 c0 -16 16 -20 24 -6 3 5 -1 11 -9 15 -9 3 -15 0 -15 -9z"/>
<path d="M6598 2005 c-4 -5 -43 -13 -65 -14 -15 -1 -18 -31 -3 -31 6 0 10 4 10 10 0 6 9 6 23 1 13 -5 33 -4 49 3 25 11 26 12 9 23 -11 7 -21 10 -23 8z"/>
<path d="M6621 1954 c15 -14 118 -38 127 -29 3 3 -1 5 -8 5 -7 0 -21 6 -29 14 -9 8 -36 17 -60 20 -38 4 -42 3 -30 -10z"/>
<path d="M6555 1950 c-3 -5 -12 -7 -20 -3 -8 3 -15 1 -15 -3 0 -5 22 -19 49 -31 26 -12 81 -44 122 -72 40 -28 76 -47 79 -44 3 3 0 8 -7 10 -7 2 -10 10 -7 17 6 17 -22 39 -78 62 -27 10 -48 22 -48 26 0 4 -16 10 -36 14 -24 4 -34 11 -30 20 6 16 0 19 -9 4z"/>
<path d="M6324 1928 c-4 -6 -3 -8 3 -5 6 4 14 0 17 -9 5 -13 9 -14 21 -4 8 7 12 16 9 21 -8 13 -42 11 -50 -3z"/>
<path d="M6257 1906 c-14 -11 -15 -15 -4 -24 14 -12 24 -7 46 21 12 15 11 17 -5 17 -11 0 -27 -7 -37 -14z"/>
<path d="M6550 1862 c0 -15 59 -52 81 -52 27 0 21 8 -9 13 -12 2 -30 13 -40 25 -20 23 -32 28 -32 14z"/>
<path d="M6127 1844 c-14 -14 -7 -35 11 -32 9 2 17 10 17 17 0 16 -18 25 -28 15z"/>
<path d="M6060 1820 c-12 -7 -12 -10 3 -16 21 -8 29 -3 19 13 -5 8 -13 9 -22 3z"/>
<path d="M5860 1755 c-16 -19 0 -19 26 0 16 12 16 14 3 15 -9 0 -22 -7 -29 -15z"/>
<path d="M6820 1763 c0 -15 19 -37 26 -31 3 4 -1 14 -10 23 -9 9 -16 13 -16 8z"/>
<path d="M8019 1733 c-9 -2 -19 -14 -21 -27 -4 -19 -1 -22 13 -19 42 11 49 55 8 46z"/>
<path d="M3771 1718 c0 -7 4 -22 9 -33 8 -18 9 -17 9 7 1 15 -3 30 -9 33 -5 3 -10 0 -9 -7z"/>
<path d="M5689 1680 c-29 -16 -91 -49 -136 -72 -46 -23 -83 -46 -83 -50 0 -17 38 -7 86 23 27 18 78 47 114 67 70 37 86 49 79 57 -3 2 -30 -9 -60 -25z"/>
<path d="M6960 1661 c0 -9 24 -21 42 -21 6 0 6 6 -2 15 -14 16 -40 20 -40 6z"/>
<path d="M5405 1519 c-22 -22 -24 -28 -10 -23 30 12 73 54 55 54 -8 0 -28 -14 -45 -31z"/>
<path d="M3881 1530 c0 -16 22 -50 33 -50 11 0 6 14 -14 40 -13 16 -20 20 -19 10z"/>
<path d="M3870 1455 c13 -21 70 -70 70 -61 0 6 -39 46 -64 66 -18 14 -18 14 -6 -5z"/>
<path d="M3977 1409 c3 -10 11 -19 19 -19 16 0 8 26 -11 33 -9 4 -11 -1 -8 -14z"/>
<path d="M5028 1306 c-3 -14 -2 -26 3 -26 14 0 20 20 11 36 -8 14 -10 12 -14 -10z"/>
<path d="M4062 1265 c6 -14 15 -25 20 -25 9 0 32 -16 134 -92 67 -50 106 -52 49 -3 -39 35 -199 145 -209 145 -3 0 0 -11 6 -25z"/>
<path d="M4162 1253 c2 -10 11 -17 21 -17 9 1 17 -4 17 -12 0 -17 5 -17 31 -4 14 8 25 7 41 -5 24 -16 68 -21 68 -7 0 14 -44 34 -80 36 -19 1 -36 8 -38 14 -2 7 -17 12 -34 12 -23 0 -29 -4 -26 -17z"/>
<path d="M4362 1203 c2 -11 14 -19 31 -21 29 -4 35 6 15 26 -19 19 -50 15 -46 -5z"/>
</g>
<g id="layer105" fill="#deded6" stroke="none">
<path d="M5700 4121 c0 -14 6 -21 19 -21 35 0 175 -52 266 -98 72 -37 108 -64 181 -137 78 -77 98 -104 137 -185 39 -82 77 -193 77 -228 0 -6 -25 0 -55 13 -30 13 -84 30 -120 36 -175 33 -366 -68 -443 -233 -42 -89 -54 -148 -54 -265 0 -240 107 -434 290 -526 93 -46 167 -61 267 -54 236 17 423 192 496 463 28 104 30 302 5 419 -59 266 -182 463 -384 612 -167 124 -357 191 -614 218 -65 7 -68 6 -68 -14z m660 -767 c52 -21 54 -32 47 -292 -7 -298 -43 -447 -127 -527 -26 -25 -40 -30 -80 -30 -42 0 -54 5 -79 30 -46 46 -61 121 -61 306 0 304 47 473 144 515 42 18 107 17 156 -2z"/>
</g>


</svg>